<svg
	width="207"
	height="72"
	viewBox="0 0 207 72"
	fill="none"
	xmlns="http://www.w3.org/2000/svg"
>
	<path
		d="M0.000206047 35.6881C0.0537852 36.8401 0.0269956 38.0592 0.147549 39.2916C0.602971 44.3286 2.14337 49.0172 4.66159 53.3843C6.56365 56.6798 8.93453 59.5867 11.801 62.1052C14.2255 64.2352 16.8241 66.1106 19.7039 67.5708C23.8697 69.6874 28.3302 70.7591 32.9782 70.9868C36.5948 71.1609 40.1846 70.826 43.694 69.8615C50.311 68.0396 55.8163 64.4227 60.4643 59.426C65.4203 54.1077 68.3404 47.8249 69.2914 40.6178C69.9076 35.956 69.7335 31.3209 68.5681 26.7931C65.849 16.2503 59.3927 8.65474 49.802 3.6446C46.1185 1.71556 42.1536 0.670664 38.0548 0.2018C34.6257 -0.200083 31.2235 0.0946313 27.848 0.818021C19.7977 2.53272 13.1673 6.65872 7.95671 12.9817C2.55861 19.5324 -0.0265835 27.128 0.000206047 35.6881Z"
		fill="#0F131D"
	/>
	<path
		d="M0.000206047 35.6881C-0.0265835 27.128 2.55861 19.519 7.95671 12.9683C13.1673 6.64532 19.7977 2.51932 27.848 0.791223C31.2235 0.0678338 34.6257 -0.213484 38.0548 0.175003C42.1536 0.643866 46.1185 1.70216 49.802 3.6178C59.3927 8.62794 65.849 16.2235 68.5681 26.7663C69.7335 31.2941 69.9076 35.9426 69.2914 40.591C68.327 47.7847 65.4069 54.0675 60.4643 59.3992C55.8163 64.3825 50.3244 68.0129 43.694 69.8347C40.1846 70.7992 36.5948 71.1475 32.9782 70.96C28.3302 70.7323 23.8697 69.6472 19.7039 67.544C16.8241 66.0838 14.2255 64.2084 11.801 62.0784C8.93453 59.5599 6.55026 56.653 4.66159 53.3575C2.14337 49.0306 0.602971 44.3285 0.147549 39.2916C0.0269956 38.0726 0.0537852 36.8535 0.000206047 35.6881ZM63.2906 35.755C63.3709 33.3437 63.0227 30.9994 62.5003 28.6819C61.0269 22.2116 57.6246 16.9871 52.3872 12.9281C45.355 7.46248 37.4386 5.50665 28.7588 7.31512C21.6328 8.80209 15.9534 12.7405 11.6269 18.5946C8.51929 22.801 6.85834 27.5432 6.45649 32.7677C6.1752 36.4248 6.37612 40.0284 7.38073 43.5382C9.56408 51.174 14.1987 56.9209 21.0568 60.8995C26.8166 64.2486 33.005 65.2666 39.5416 64.1548C44.2968 63.351 48.5697 61.3148 52.2934 58.3141C59.4731 52.5404 63.103 44.9582 63.2906 35.755ZM31.344 4.301C31.5583 3.55082 31.0761 3.59101 30.5671 3.65799C28.0355 4.03308 25.5709 4.67609 23.2 5.65401C15.498 8.84228 9.80519 14.1739 6.1886 21.6757C4.71517 24.7434 3.64359 27.9585 3.37569 31.3879C3.3623 31.6023 2.96045 32.0175 3.52303 32.0175C3.88469 32.0175 4.55443 32.4328 4.59462 31.5353C4.62141 30.9592 4.75535 30.3966 4.86251 29.834C6.25557 22.7072 9.65785 16.746 15.2301 12.0573C19.7441 8.27964 24.8743 5.88174 30.7412 5.10477C31.2636 5.03779 31.478 4.82345 31.344 4.301ZM38.2289 66.9546C38.2825 67.1153 37.9744 67.6244 38.6308 67.5038C39.5952 67.3297 40.5596 67.2091 41.5106 66.9814C49.3198 65.0925 55.6421 60.9263 60.3839 54.4426C63.612 50.0219 65.5543 45.0653 66.2508 39.6131C66.2776 39.3988 66.5053 39.0505 66.0499 39.1175C65.7016 39.171 65.1123 38.7558 65.0185 39.439C64.9113 40.2159 64.764 40.9661 64.6033 41.7297C62.6878 50.263 58.0934 56.9477 50.6995 61.6497C47.0293 63.9806 43.0243 65.4944 38.7245 66.1374C38.162 66.2178 38.1619 66.4723 38.2289 66.9546ZM66.2374 31.4281C66.1303 30.6779 66.0499 29.9009 65.8892 29.1374C64.4023 22.4929 61.4019 16.7326 56.2851 12.0841C53.0971 9.19058 49.5341 6.99362 45.5693 5.42627C43.3993 4.56892 41.1356 4.01968 38.8183 3.67138C38.6174 3.64459 38.3227 3.45705 38.2021 3.79195C37.9208 4.55553 38.2423 5.05118 39.046 5.11816C39.1532 5.13156 39.2737 5.13156 39.3809 5.15835C43.9753 5.93533 48.1679 7.69021 51.9988 10.356C56.1913 13.2764 59.5668 16.8799 61.8707 21.4748C63.4647 24.6765 64.4693 28.0657 64.9783 31.6023C65.0989 32.4194 65.6481 31.9773 65.9829 32.0175C66.4919 32.0711 66.1169 31.629 66.2374 31.4281ZM30.393 67.3832C31.277 67.41 31.3038 67.41 31.3038 67.1153C31.3038 66.7 31.5047 66.1776 30.7412 66.124C30.0045 66.0704 29.2678 65.9097 28.5311 65.7489C22.3561 64.3691 17.1723 61.288 12.819 56.7199C9.69803 53.4647 7.44771 49.687 5.98768 45.427C5.31794 43.498 4.8893 41.5154 4.59462 39.4926C4.48746 38.7156 3.89809 39.171 3.54982 39.1041C3.1078 39.0237 3.28193 39.4122 3.30872 39.6131C3.46946 40.658 3.57661 41.7297 3.83111 42.7478C6.4431 53.0628 12.6449 60.4575 22.1954 65.0389C24.8475 66.3115 27.6738 67.0751 30.393 67.3832ZM3.05422 35.4469C3.08101 36.3445 3.08101 36.3445 4.05883 36.3177C5.06344 36.2909 4.48746 35.5407 4.54104 35.1388C4.6482 34.2413 3.91148 34.7771 3.56322 34.6968C2.88008 34.536 3.06761 35.0852 3.05422 35.4469ZM35.5232 4.19383C35.5232 3.24271 35.5232 3.24271 35.0142 3.24271C34.0498 3.24271 34.0498 3.24271 34.0498 4.16704C34.0498 4.89043 34.0498 4.90383 35.2553 4.87703C35.8714 4.85024 35.3223 4.34119 35.5232 4.19383ZM34.0498 66.968C34.0765 67.4904 33.8622 68.053 34.6927 67.9325C35.1347 67.8655 35.5902 67.9995 35.483 67.2761C35.416 66.7938 35.6169 66.2714 34.7597 66.3249C34.1569 66.3517 33.9426 66.4857 34.0498 66.968ZM66.5321 35.5675C66.6527 34.9647 66.5455 34.67 65.7686 34.6566C64.7908 34.6432 65.1926 35.2728 65.1123 35.7015C64.9515 36.5052 65.5409 36.2641 65.9561 36.3311C66.6259 36.4249 66.6125 36.0498 66.5321 35.5675Z"
		fill="#B5BDD1"
	/>
	<path
		d="M63.2897 35.7551C63.1022 44.9716 59.4722 52.5404 52.2792 58.3141C48.542 61.3149 44.2691 63.3377 39.5274 64.1548C33.0041 65.2667 26.8023 64.2486 21.0426 60.8996C14.1844 56.9209 9.54983 51.174 7.36648 43.5382C6.36187 40.0285 6.16095 36.4249 6.44224 32.7678C6.84408 27.5433 8.51843 22.8145 11.6126 18.5947C15.9391 12.7406 21.6185 8.78875 28.7446 7.31518C37.4244 5.50671 45.3407 7.46254 52.373 12.9148C57.6103 16.9738 61.0126 22.1982 62.486 28.6686C63.0218 30.9995 63.3701 33.3438 63.2897 35.7551ZM61.7895 35.4738C61.8565 33.3438 61.6422 31.2138 61.1599 29.0972C59.7535 22.8815 56.4986 17.8713 51.4487 13.9998C44.604 8.76196 36.9556 6.92669 28.5302 8.88253C22.2079 10.3427 17.1715 13.8927 13.1664 18.943C10.1258 22.7877 8.50504 27.2084 7.90227 32.0578C7.46024 35.6077 7.68795 39.1175 8.57201 42.5603C10.032 48.2537 13.0727 52.9959 17.5733 56.787C22.1275 60.6183 27.3649 62.775 33.3122 63.0965C37.1163 63.2975 40.7999 62.6545 44.3227 61.2211C49.5868 59.0777 53.9268 55.7153 57.1281 51.0267C60.3161 46.3648 61.9636 41.1939 61.7895 35.4738Z"
		fill="#0F131D"
	/>
	<path
		d="M31.345 4.30097C31.4789 4.82342 31.2646 5.02436 30.769 5.09134C24.9155 5.86832 19.7719 8.26622 15.2579 12.0439C9.68562 16.7192 6.26995 22.6804 4.89029 29.8205C4.78313 30.3832 4.64918 30.9592 4.62239 31.5219C4.58221 32.4328 3.91247 32.0041 3.55081 32.0041C2.98823 32.0175 3.39007 31.6022 3.40347 31.3745C3.65797 27.9451 4.72955 24.73 6.21637 21.6623C9.83297 14.1471 15.5258 8.82886 23.2278 5.64058C25.5986 4.66267 28.0633 4.01966 30.5949 3.64457C31.0771 3.59098 31.5593 3.55079 31.345 4.30097Z"
		fill="#0F131D"
	/>
	<path
		d="M38.2292 66.9545C38.1622 66.4589 38.1622 66.2177 38.7248 66.1373C43.0245 65.4943 47.0295 63.9806 50.6997 61.6497C58.0936 56.9476 62.6881 50.2764 64.5901 41.7296C64.7642 40.9661 64.8982 40.2159 65.0053 39.4389C65.0991 38.7557 65.6885 39.1576 66.0367 39.1174C66.4922 39.0504 66.2645 39.4121 66.2377 39.6131C65.5411 45.0519 63.5989 50.0218 60.3708 54.4425C55.629 60.9263 49.3067 65.0924 41.4975 66.9813C40.5465 67.209 39.582 67.3296 38.6176 67.5037C37.9747 67.6243 38.2828 67.1153 38.2292 66.9545Z"
		fill="#0F131D"
	/>
	<path
		d="M66.2371 31.4281C66.1166 31.6425 66.4916 32.0845 65.9826 32.0176C65.6477 31.9774 65.0986 32.4194 64.978 31.6023C64.469 28.0657 63.4644 24.6765 61.8704 21.4748C59.5799 16.8934 56.191 13.2764 51.9985 10.3561C48.1676 7.69024 43.975 5.93535 39.3806 5.15838C39.2734 5.14498 39.1663 5.13159 39.0457 5.11819C38.2554 5.05121 37.9205 4.55555 38.2018 3.79198C38.3224 3.47047 38.6305 3.64462 38.818 3.67141C41.1219 4.01971 43.3856 4.55555 45.5556 5.4263C49.5338 6.99364 53.0968 9.1906 56.2714 12.0842C61.3748 16.7326 64.3886 22.4929 65.8755 29.1374C66.0496 29.8876 66.1166 30.6646 66.2371 31.4281Z"
		fill="#0F131D"
	/>
	<path
		d="M30.3924 67.3832C27.6733 67.0751 24.847 66.3115 22.1948 65.0389C12.6443 60.4575 6.44252 53.0628 3.83054 42.7478C3.57604 41.7297 3.45548 40.658 3.30814 39.6131C3.28135 39.4122 3.10722 39.0371 3.54925 39.1041C3.91091 39.171 4.48688 38.7156 4.59404 39.4926C4.88873 41.5154 5.31736 43.498 5.9871 45.427C7.46053 49.6736 9.71085 53.4513 12.8184 56.7199C17.1717 61.2746 22.3689 64.3557 28.5305 65.7489C29.2538 65.9097 29.9906 66.0704 30.7407 66.124C31.5042 66.1776 31.3032 66.7 31.3032 67.1153C31.3032 67.4234 31.2765 67.4234 30.3924 67.3832Z"
		fill="#0F131D"
	/>
	<path
		d="M3.05422 35.4469C3.05422 35.0852 2.8667 34.536 3.56322 34.6967C3.91149 34.7771 4.6482 34.2413 4.54104 35.1388C4.50086 35.5273 5.06344 36.2909 4.05883 36.3176C3.08101 36.3444 3.08101 36.3444 3.05422 35.4469Z"
		fill="#0F131D"
	/>
	<path
		d="M35.5223 4.1938C35.3079 4.34116 35.8705 4.85021 35.2544 4.877C34.0488 4.91719 34.0488 4.8904 34.0488 4.16701C34.0488 3.24268 34.0488 3.24268 35.0133 3.24268C35.5223 3.24268 35.5223 3.24268 35.5223 4.1938Z"
		fill="#0F131D"
	/>
	<path
		d="M34.0499 66.968C33.9428 66.4857 34.1571 66.3518 34.7598 66.325C35.6305 66.2714 35.4162 66.7938 35.4832 67.2761C35.5903 67.9995 35.1349 67.8655 34.6929 67.9325C33.8624 68.0531 34.0767 67.4904 34.0499 66.968Z"
		fill="#0F131D"
	/>
	<path
		d="M66.5329 35.5675C66.6133 36.0498 66.6133 36.4249 65.9569 36.3311C65.5417 36.2775 64.9523 36.5186 65.113 35.7015C65.1934 35.2728 64.7782 34.6432 65.7694 34.6566C66.5463 34.67 66.6668 34.9647 66.5329 35.5675Z"
		fill="#0F131D"
	/>
	<path
		d="M61.7907 35.4738C61.9648 41.1939 60.3172 46.3648 57.1561 51.0132C53.9547 55.7153 49.6148 59.0643 44.3507 61.2077C40.8144 62.6411 37.1309 63.2841 33.3401 63.0831C27.3928 62.7616 22.1555 60.6049 17.6013 56.7736C13.1006 52.9825 10.06 48.2537 8.59996 42.5469C7.71591 39.1041 7.4882 35.5943 7.93023 32.0444C8.5196 27.2084 10.1538 22.7743 13.1944 18.9296C17.186 13.8793 22.2359 10.3427 28.5582 8.86911C36.9835 6.91328 44.6185 8.73515 51.4767 13.9864C56.5265 17.8579 59.7814 22.868 61.1879 29.0838C61.6433 31.2138 61.8576 33.3572 61.7907 35.4738ZM31.6524 60.2432C31.6524 60.002 31.6524 59.7609 31.6524 59.5198C31.6524 53.2504 31.6524 46.981 31.6524 40.7116C31.6524 39.8275 32.148 39.2381 32.8579 39.2381C33.5411 39.2381 33.9831 39.8007 33.9831 40.6849C33.9831 46.9274 33.9697 53.1834 33.9697 59.426C33.9697 60.6049 33.9697 60.5915 35.1484 60.5513C35.5101 60.5379 35.644 60.4441 35.644 60.0556C35.6173 55.1526 35.6172 50.2363 35.6172 45.3333C35.6172 43.7526 35.6039 42.1584 35.6039 40.5777C35.6039 39.8141 36.0995 39.2247 36.7022 39.2113C37.2916 39.1979 37.8676 39.7873 37.9345 40.4839C37.9613 40.6982 37.9479 40.926 37.9479 41.1537C37.9479 45.2797 37.9345 49.4057 37.9345 53.5451C37.9345 55.5947 37.9345 57.6577 37.9613 59.7073C37.9613 59.8681 37.8006 60.2164 38.1087 60.1762C38.5641 60.136 39.0329 60.0154 39.4482 59.8145C39.7428 59.6671 39.5821 59.2786 39.5821 59.0107C39.5955 52.9155 39.5821 46.8203 39.5955 40.7384C39.5955 39.8409 40.0777 39.2515 40.7876 39.2649C41.511 39.2649 41.8994 39.7605 41.8994 40.6849C41.9128 46.5925 41.9262 52.5136 41.9396 58.4213C41.9396 59.4126 41.9396 59.3992 42.8906 59.0643C43.2523 58.9303 43.5336 58.85 43.5336 58.3141C43.5068 51.6831 43.5068 45.052 43.5202 38.4343C43.5202 38.019 43.413 37.9119 42.9978 37.9253C37.5729 37.9387 32.148 37.9387 26.7365 37.9119C26.2811 37.9119 26.2007 38.0592 26.2007 38.4745C26.2141 41.5824 26.2007 44.6769 26.2007 47.7848C26.2007 51.308 26.2007 54.8311 26.2007 58.3677C26.2007 58.6088 26.0534 58.9035 26.4552 59.0241C26.8705 59.1581 27.2723 59.3456 27.7277 59.5332C27.7411 59.3322 27.7411 59.2117 27.7411 59.0777C27.7411 53.103 27.7277 47.115 27.7277 41.1403C27.7277 40.8322 27.7143 40.5107 27.7813 40.2026C27.9554 39.3988 28.7323 39.0237 29.4021 39.372C29.9111 39.64 30.0584 40.082 30.0584 40.6447C30.045 46.6059 30.0584 52.5672 30.0584 58.5151C30.0584 59.9752 30.0584 59.9752 31.4917 60.2566C31.5184 60.2566 31.5586 60.2432 31.6524 60.2432ZM52.066 40.2428C52.7358 40.2428 53.3921 40.1624 54.0351 39.9615C58.0401 38.7424 60.1029 34.7772 58.884 30.5842C58.0535 27.7308 56.5265 26.485 53.6198 26.3242C53.4725 26.3108 53.285 26.2171 53.218 26.418C53.1644 26.5654 53.3118 26.6591 53.4055 26.7395C53.727 27.0476 54.0887 27.3021 54.5039 27.5031C58.3884 29.325 58.6965 34.4825 56.1515 36.9741C54.6111 38.4879 52.7626 39.1309 50.673 38.5281C48.6102 37.9253 47.3243 36.5187 47.0966 34.2949C46.8287 31.7095 48.5432 29.6599 51.1418 29.8742C52.8965 30.0216 54.2226 31.5621 54.0083 33.2902C53.8476 34.6298 52.642 35.5407 51.4097 35.2326C50.9007 35.1121 50.5256 34.8174 50.4721 34.2413C50.4185 33.7055 50.9141 33.7591 51.1954 33.6385C51.691 33.4108 51.9455 33.0491 51.8115 32.54C51.6642 31.9774 51.1954 31.8166 50.6462 31.897C49.7354 32.031 48.8111 33.3304 48.9451 34.2547C49.213 35.9694 50.9409 37.0813 52.6152 36.6392C55.187 35.956 56.2586 32.9687 54.7852 30.6244C53.6868 28.8829 51.4767 28.0523 49.4273 28.6016C47.2305 29.2044 45.6365 31.1736 45.5562 33.3974C45.4222 37.6171 48.9986 40.3366 52.066 40.2428ZM16.3555 26.2706C15.9135 26.3108 15.5519 26.3644 15.2036 26.351C13.9713 26.2974 13.0068 26.7931 12.2166 27.6906C10.6762 29.4455 10.1404 31.4951 10.3413 33.7993C10.7297 38.1664 15.0027 41.1939 19.2354 40.0552C22.4636 39.1845 24.5532 35.8221 23.8566 32.5802C23.3878 30.41 21.5527 28.7221 19.1015 28.4542C15.659 28.0791 13.4087 31.2942 14.2526 34.1074C15.0027 36.599 17.9093 37.5368 19.7176 35.9158C20.4142 35.2862 20.749 34.4825 20.5213 33.5715C20.3204 32.7812 19.731 32.2721 18.9675 31.9774C18.7532 31.897 18.5389 31.8836 18.3246 31.964C17.9093 32.1381 17.695 32.4329 17.7352 32.9017C17.7754 33.4376 18.1371 33.6653 18.6059 33.7725C19.1818 33.9064 19.2756 34.1208 19.0077 34.6432C18.847 34.9781 18.5523 35.1389 18.2308 35.2326C17.2396 35.5407 16.1144 35.0049 15.726 34.027C15.2974 32.9419 15.4045 31.9238 16.168 31.0263C17.0789 29.9546 18.2844 29.6599 19.6105 29.9948C21.9144 30.5708 23.1065 32.9285 22.3296 35.2996C21.7135 37.2287 20.3204 38.3405 18.4183 38.7156C16.2618 39.1443 14.4267 38.3941 13.0336 36.7062C10.7029 33.893 11.654 29.0168 14.9089 27.4763C15.4313 27.2084 15.9805 26.9405 16.3555 26.2706ZM24.1915 21.2471C25.1157 21.6222 44.431 21.649 45.449 21.2203C45.2481 21.0998 45.0874 21.0462 44.9802 20.939C43.4264 19.6396 41.9664 18.2196 40.5063 16.8264C38.6311 15.0581 36.8094 13.2764 34.9609 11.4947C34.8002 11.3474 34.76 11.2268 34.5189 11.468C33.0588 12.9415 31.5854 14.4017 30.0852 15.8351C28.1831 17.6436 26.3079 19.5056 24.1915 21.2471ZM48.3423 26.4314C39.1937 26.4314 30.1522 26.4314 21.0303 26.4314C21.6331 27.4495 22.4502 27.905 23.5619 27.905C28.9199 27.905 34.2644 27.9184 39.6223 27.9184C41.7387 27.9184 43.855 27.905 45.9714 27.8782C46.9894 27.8648 47.8065 27.4629 48.3423 26.4314ZM24.9148 29.4053C25.531 30.4904 26.3615 30.8387 27.5536 30.8119C32.4561 30.7315 37.372 30.7182 42.2879 30.7851C43.4264 30.7985 43.9354 30.1823 44.565 29.4053C37.9747 29.4053 31.4649 29.4053 24.9148 29.4053ZM34.8671 35.0451C32.1882 35.0451 29.5092 35.0585 26.8437 35.0317C26.3213 35.0317 26.1203 35.1523 26.1739 35.6881C26.2141 36.1302 26.0802 36.5053 26.8169 36.5053C32.148 36.4651 37.4791 36.4785 42.8102 36.5053C43.413 36.5053 43.4934 36.2909 43.4666 35.7819C43.4532 35.3264 43.48 35.0183 42.837 35.0317C40.1715 35.0585 37.5193 35.0451 34.8671 35.0451ZM34.8537 33.5447C37.5059 33.5447 40.1715 33.5179 42.8236 33.5581C43.3996 33.5715 43.4398 33.3438 43.4532 32.8749C43.4666 32.3525 43.3326 32.2051 42.7969 32.2051C37.4791 32.2185 32.1748 32.2185 26.8571 32.1917C26.3213 32.1917 26.1873 32.3257 26.1739 32.8615C26.1605 33.4242 26.3347 33.5581 26.8838 33.5581C29.5494 33.5179 32.2016 33.5447 34.8537 33.5447ZM20.7892 24.4086V24.3952C23.3342 24.3952 25.8792 24.355 28.4242 24.422C29.1744 24.4354 29.0806 24.0737 29.1208 23.5914C29.161 23.0422 28.96 22.935 28.451 22.935C23.4548 22.9484 18.4585 22.935 13.4623 22.935C12.4978 22.935 12.538 22.935 12.4978 23.8727C12.4711 24.3818 12.672 24.4354 13.1006 24.422C15.659 24.4086 18.2308 24.4086 20.7892 24.4086ZM48.6638 24.4086C51.2222 24.422 53.794 24.3952 56.3524 24.4354C56.9953 24.4488 56.9551 24.1407 56.9417 23.712C56.9284 23.2833 57.0221 22.9216 56.339 22.935C51.2624 22.9618 46.1723 22.9618 41.0957 22.935C40.4528 22.935 40.5063 23.2431 40.5063 23.6584C40.5063 24.0871 40.426 24.4488 41.1091 24.4354C43.6273 24.3818 46.1455 24.4086 48.6638 24.4086ZM28.3037 11.2804C23.2137 13.6113 18.7934 16.8398 14.6544 20.6041C15.8331 20.7381 16.8244 20.6711 17.7888 19.8673C20.749 17.4024 23.9638 15.2992 27.3259 13.4372C28.1831 12.9549 28.518 12.4459 28.3573 11.5483C28.3439 11.4814 28.3305 11.4144 28.3037 11.2804ZM54.8522 20.5639C50.673 16.947 46.2661 13.7721 41.2431 11.334C41.2431 11.7493 41.2698 12.0842 41.2431 12.4057C41.2163 12.7674 41.3368 12.9683 41.6583 13.1425C45.1008 15.1519 48.4361 17.3087 51.5838 19.7334C52.5483 20.4835 53.5261 20.8854 54.8522 20.5639ZM55.0263 43.3507C50.097 42.7345 47.5118 44.5027 46.0384 48.8431C46.2929 48.5618 46.5206 48.2804 46.7885 48.0125C47.9538 46.7935 49.4809 46.2844 51.0346 45.829C52.575 45.3869 53.9547 44.6903 55.0263 43.3507ZM14.4401 43.3239C15.3375 44.4492 16.4493 45.1056 17.695 45.561C19.1283 46.0835 20.6419 46.4184 21.8876 47.3427C22.4234 47.7446 22.9324 48.2001 23.4816 48.6555C22.2493 45.119 19.4497 42.6809 14.4401 43.3239ZM23.3744 52.0849C21.968 48.3876 18.8604 47.1686 14.6142 47.6776C15.7796 49.0038 17.1994 49.8612 18.8872 50.2497C20.441 50.6114 22.0483 50.7855 23.3744 52.0849ZM46.3063 51.7098C47.552 50.7319 49.0254 50.4908 50.5122 50.2363C52.2402 49.9416 53.6064 49.0172 54.8254 47.7446C50.6998 47.1016 47.8333 48.1599 46.3063 51.7098ZM23.8566 57.0415C23.8432 53.3844 21.5795 51.9376 18.5255 52.6342C19.9186 54.523 21.968 55.5947 23.8566 57.0415ZM45.5696 57.1219C47.4181 55.5679 49.6014 54.5766 50.9811 52.5538C47.0832 52.2591 46.0652 53.103 45.5696 57.1219ZM20.2802 42.2924C21.7001 43.2435 22.8922 44.2348 23.8834 45.6682C23.8834 43.9401 23.8164 42.4263 23.361 40.8992C22.3832 41.4618 21.4857 42.0111 20.2802 42.2924ZM49.2531 42.3326C48.0342 42.0111 47.11 41.5422 46.2393 40.8724C45.7705 42.3996 45.9044 43.8999 45.7705 45.4003C46.6813 44.1812 47.7663 43.1765 49.2531 42.3326ZM37.2782 23.0824C35.5771 23.0824 33.9831 23.0824 32.3087 23.0824C32.8981 24.0469 33.7554 24.5024 34.7466 24.5426C35.7914 24.6095 36.6219 24.0469 37.2782 23.0824Z"
		fill="#B5BDD1"
	/>
	<path
		d="M31.6515 60.2432C31.5577 60.2566 31.5175 60.27 31.4773 60.2566C30.0575 59.9752 30.0575 59.9752 30.0441 58.5151C30.0441 52.5538 30.0307 46.5925 30.0441 40.6447C30.0441 40.082 29.8967 39.64 29.3877 39.372C28.718 39.0237 27.9411 39.3988 27.767 40.2026C27.7 40.4973 27.7134 40.8188 27.7134 41.1403C27.7134 47.115 27.7134 53.103 27.7268 59.0777C27.7268 59.1983 27.7134 59.3322 27.7134 59.5332C27.2446 59.3456 26.8561 59.1581 26.4409 59.0241C26.0524 58.9036 26.1864 58.5954 26.1864 58.3677C26.173 54.8445 26.173 51.3214 26.1864 47.7848C26.1864 44.6769 26.1998 41.5824 26.1864 38.4745C26.1864 38.0592 26.2534 37.9119 26.7222 37.9119C32.1471 37.9253 37.5719 37.9253 42.9834 37.9253C43.3853 37.9253 43.5058 38.019 43.5058 38.4343C43.4924 45.0654 43.4924 51.6965 43.5192 58.3141C43.5192 58.8366 43.2513 58.9303 42.8763 59.0643C41.9119 59.3992 41.9253 59.4126 41.9253 58.4213C41.9119 52.5136 41.8985 46.5925 41.8851 40.6849C41.8851 39.7605 41.4966 39.2649 40.7733 39.2649C40.0634 39.2649 39.5812 39.8543 39.5812 40.7384C39.5812 46.8337 39.5812 52.9289 39.5678 59.0107C39.5678 59.2786 39.7285 59.6671 39.4338 59.8145C39.0186 60.0154 38.5498 60.136 38.0943 60.1762C37.7863 60.203 37.947 59.8681 37.947 59.7073C37.9336 57.6577 37.9202 55.5947 37.9202 53.5451C37.9202 49.4191 37.9336 45.2931 37.9336 41.1537C37.9336 40.926 37.947 40.7117 37.9202 40.4839C37.8398 39.7739 37.2773 39.1979 36.6879 39.2113C36.0851 39.2247 35.5895 39.8141 35.5895 40.5777C35.5895 42.1584 35.6029 43.7526 35.6029 45.3333C35.6163 50.2363 35.6163 55.1526 35.6297 60.0556C35.6297 60.4575 35.4958 60.5379 35.1341 60.5513C33.9554 60.5915 33.9554 60.6049 33.9554 59.426C33.9554 53.1834 33.9688 46.9274 33.9688 40.6849C33.9688 39.8141 33.5267 39.2381 32.8436 39.2381C32.1337 39.2381 31.6381 39.8275 31.6381 40.7116C31.6381 46.981 31.6381 53.2504 31.6381 59.5198C31.6515 59.7609 31.6515 60.002 31.6515 60.2432Z"
		fill="#0F131D"
	/>
	<path
		d="M52.0661 40.2427C48.9987 40.3365 45.4089 37.6037 45.5697 33.3973C45.65 31.1869 47.244 29.2043 49.4408 28.6015C51.4902 28.0388 53.7137 28.8828 54.7987 30.6243C56.2721 32.9686 55.1871 35.9425 52.6287 36.6391C50.9544 37.0812 49.2264 35.9693 48.9585 34.2546C48.8112 33.3303 49.7488 32.0309 50.6597 31.8969C51.1955 31.8165 51.6777 31.9773 51.825 32.5399C51.959 33.049 51.7179 33.4241 51.2089 33.6384C50.9276 33.759 50.4454 33.7054 50.4855 34.2412C50.5391 34.8039 50.9008 35.0986 51.4232 35.2325C52.6555 35.5407 53.861 34.6297 54.0218 33.2901C54.2361 31.562 52.91 30.0215 51.1553 29.8741C48.5567 29.6598 46.8556 31.7094 47.1101 34.2948C47.3378 36.5186 48.6237 37.9118 50.6865 38.528C52.7761 39.1442 54.6245 38.4878 56.1649 36.974C58.7099 34.469 58.4019 29.3249 54.5174 27.503C54.1155 27.3155 53.7539 27.0609 53.419 26.7394C53.3252 26.6456 53.1779 26.5519 53.2315 26.4179C53.2985 26.217 53.4994 26.3107 53.6333 26.3241C56.54 26.4849 58.067 27.7307 58.8975 30.5841C60.103 34.7637 58.0536 38.7289 54.0486 39.9614C53.3922 40.1623 52.7359 40.2427 52.0661 40.2427Z"
		fill="#0F131D"
	/>
	<path
		d="M16.3543 26.2706C15.9659 26.9404 15.4167 27.2084 14.8809 27.4629C11.626 29.0168 10.6615 33.8796 13.0056 36.6928C14.3987 38.3807 16.2472 39.1309 18.3903 38.7022C20.2924 38.3271 21.6854 37.2152 22.3016 35.2862C23.0651 32.9151 21.873 30.5574 19.5825 29.9813C18.2564 29.6464 17.0508 29.9412 16.14 31.0128C15.3765 31.9104 15.2693 32.9285 15.698 34.0136C16.0998 34.9915 17.2116 35.5407 18.2028 35.2192C18.5243 35.1255 18.8056 34.9647 18.9797 34.6298C19.2476 34.1073 19.1538 33.893 18.5779 33.759C18.109 33.6519 17.7608 33.4241 17.7072 32.8883C17.667 32.4194 17.8947 32.1247 18.2966 31.9506C18.5109 31.8568 18.7252 31.8702 18.9395 31.964C19.703 32.2587 20.2924 32.7677 20.4933 33.5581C20.721 34.469 20.3862 35.2728 19.6896 35.9024C17.8947 37.5234 14.9881 36.599 14.2245 34.094C13.3807 31.2942 15.631 28.0657 19.0735 28.4408C21.5247 28.7087 23.3732 30.3966 23.8286 32.5668C24.5251 35.8087 22.4356 39.1711 19.2074 40.0418C14.9747 41.1805 10.6883 38.153 10.3133 33.7858C10.1123 31.4817 10.6615 29.4321 12.1885 27.6772C12.9788 26.7797 13.9567 26.284 15.1756 26.3376C15.5506 26.3644 15.9123 26.2974 16.3543 26.2706Z"
		fill="#0F131D"
	/>
	<path
		d="M24.1914 21.2471C26.3078 19.519 28.1831 17.657 30.0985 15.8351C31.5987 14.4017 33.0721 12.9415 34.5322 11.468C34.7733 11.2268 34.8135 11.3474 34.9742 11.4948C36.8093 13.2764 38.6444 15.0715 40.4929 16.8398C41.9529 18.233 43.4129 19.653 44.9667 20.9524C45.0873 21.0462 45.2346 21.1132 45.4355 21.2337C44.4309 21.6356 25.1156 21.6222 24.1914 21.2471ZM34.3045 14.0936C32.3086 16.103 30.2994 18.1258 28.3572 20.0683C30.0583 20.0683 31.9202 20.0549 33.7955 20.0817C34.2107 20.0817 34.3313 19.9611 34.3045 19.5458C34.2777 18.876 34.2911 18.2062 34.2911 17.5364C34.3045 16.3575 34.3045 15.1653 34.3045 14.0936ZM41.685 20.0817C39.515 17.9919 37.4255 15.9824 35.2957 13.9328C35.2957 15.9155 35.2957 17.8177 35.2957 19.72C35.2957 19.9611 35.3894 20.0817 35.6439 20.0817C37.613 20.0817 39.5954 20.0817 41.685 20.0817Z"
		fill="#0F131D"
	/>
	<path
		d="M48.3413 26.4314C47.8055 27.4495 46.9884 27.8514 45.9704 27.8782C43.854 27.9184 41.7376 27.9184 39.6213 27.9184C34.2633 27.9184 28.9188 27.905 23.5609 27.905C22.4491 27.905 21.6187 27.4495 21.0293 26.4314C30.1511 26.4314 39.1926 26.4314 48.3413 26.4314Z"
		fill="#0F131D"
	/>
	<path
		d="M24.9141 29.4053C31.4641 29.4053 37.9606 29.4053 44.5642 29.4053C43.9347 30.1822 43.4257 30.7985 42.2871 30.7851C37.3846 30.7181 32.4687 30.7315 27.5528 30.8119C26.3741 30.8387 25.5302 30.4904 24.9141 29.4053Z"
		fill="#0F131D"
	/>
	<path
		d="M34.8673 35.0451C37.5195 35.0451 40.1717 35.0719 42.8238 35.0317C43.4802 35.0183 43.44 35.3264 43.4534 35.7819C43.4668 36.2909 43.3998 36.5052 42.7971 36.5052C37.4659 36.4784 32.1348 36.4651 26.8037 36.5052C26.067 36.5052 26.2009 36.1301 26.1607 35.6881C26.1071 35.1522 26.3081 35.0317 26.8305 35.0317C29.5094 35.0585 32.1884 35.0451 34.8673 35.0451Z"
		fill="#0F131D"
	/>
	<path
		d="M34.8537 33.5447C32.2015 33.5447 29.5359 33.5313 26.8838 33.5581C26.3346 33.5581 26.1738 33.4241 26.1738 32.8615C26.1738 32.3256 26.3212 32.1917 26.857 32.1917C32.1747 32.2184 37.479 32.2184 42.7968 32.205C43.3326 32.205 43.4665 32.3524 43.4531 32.8749C43.4397 33.3437 43.3995 33.5581 42.8236 33.5581C40.1714 33.5179 37.5192 33.5447 34.8537 33.5447Z"
		fill="#0F131D"
	/>
	<path
		d="M20.7896 24.4085C18.2178 24.4085 15.6594 24.3951 13.0876 24.4219C12.6589 24.4219 12.458 24.3817 12.4848 23.8727C12.525 22.9349 12.4848 22.9349 13.4492 22.9349C18.4455 22.9349 23.4417 22.9483 28.438 22.9349C28.947 22.9349 29.1479 23.0287 29.1077 23.5913C29.0675 24.0736 29.1613 24.4353 28.4112 24.4219C25.8662 24.3683 23.3212 24.3951 20.7762 24.3951C20.7896 24.4085 20.7896 24.4085 20.7896 24.4085Z"
		fill="#0F131D"
	/>
	<path
		d="M48.6642 24.4085C46.146 24.4085 43.6278 24.3817 41.1096 24.4219C40.4265 24.4353 40.5068 24.087 40.5068 23.645C40.5068 23.2163 40.4532 22.9082 41.0962 22.9216C46.1728 22.9484 51.2628 22.9484 56.3395 22.9216C57.0226 22.9216 56.9288 23.2833 56.9422 23.6985C56.9556 24.1272 56.9958 24.4353 56.3529 24.4219C53.7945 24.3817 51.236 24.4085 48.6642 24.4085Z"
		fill="#0F131D"
	/>
	<path
		d="M28.3036 11.2804C28.3304 11.4144 28.3438 11.4813 28.3572 11.5483C28.5179 12.4593 28.183 12.9683 27.3258 13.4372C23.9637 15.2992 20.7489 17.4024 17.7887 19.8673C16.8243 20.6711 15.833 20.738 14.6543 20.6041C18.7933 16.8398 23.2136 13.6113 28.3036 11.2804Z"
		fill="#0F131D"
	/>
	<path
		d="M54.8527 20.5639C53.54 20.8854 52.5622 20.4835 51.5844 19.7333C48.4232 17.3086 45.0879 15.1519 41.6588 13.1425C41.3507 12.9549 41.2168 12.754 41.2436 12.4057C41.2704 12.0708 41.2436 11.7493 41.2436 11.334C46.2532 13.7587 50.6601 16.9469 54.8527 20.5639Z"
		fill="#0F131D"
	/>
	<path
		d="M55.025 43.3506C53.9668 44.6902 52.5738 45.3868 51.0334 45.8289C49.4796 46.2843 47.9392 46.7934 46.7872 48.0124C46.5327 48.2804 46.2916 48.5617 46.0371 48.843C47.4971 44.5027 50.0957 42.7344 55.025 43.3506Z"
		fill="#0F131D"
	/>
	<path
		d="M14.4395 43.3238C19.4491 42.6808 22.2486 45.1189 23.4943 48.6555C22.9317 48.1866 22.4361 47.7312 21.9003 47.3427C20.6412 46.4183 19.141 46.07 17.7078 45.561C16.4487 45.1055 15.3369 44.4625 14.4395 43.3238Z"
		fill="#0F131D"
	/>
	<path
		d="M23.3735 52.0848C22.0474 50.7988 20.44 50.6113 18.8862 50.2496C17.1985 49.8611 15.7786 49.0037 14.6133 47.6775C18.8594 47.1551 21.967 48.3875 23.3735 52.0848Z"
		fill="#0F131D"
	/>
	<path
		d="M46.3066 51.7098C47.8336 48.1598 50.7135 47.1015 54.8257 47.7445C53.6068 49.0172 52.2405 49.9415 50.5126 50.2362C49.0258 50.4907 47.539 50.7319 46.3066 51.7098Z"
		fill="#0F131D"
	/>
	<path
		d="M23.8565 57.0415C21.9545 55.5947 19.9184 54.523 18.5254 52.6342C21.5794 51.951 23.8431 53.3978 23.8565 57.0415Z"
		fill="#0F131D"
	/>
	<path
		d="M45.5684 57.1219C46.064 53.1164 47.082 52.2591 50.9799 52.5538C49.6002 54.5632 47.4168 55.5679 45.5684 57.1219Z"
		fill="#0F131D"
	/>
	<path
		d="M20.2793 42.2924C21.4848 42.0111 22.3957 41.4618 23.3601 40.9126C23.8155 42.4264 23.8825 43.9401 23.8825 45.6816C22.8913 44.2214 21.6857 43.2435 20.2793 42.2924Z"
		fill="#0F131D"
	/>
	<path
		d="M49.2522 42.3326C47.7654 43.1765 46.6804 44.1812 45.7695 45.3869C45.9035 43.8865 45.7695 42.3862 46.2383 40.859C47.109 41.5422 48.0333 42.0111 49.2522 42.3326Z"
		fill="#0F131D"
	/>
	<path
		d="M37.2781 23.0823C36.6351 24.0468 35.8046 24.596 34.7464 24.5425C33.7552 24.4889 32.898 24.0468 32.3086 23.0823C33.9829 23.0823 35.5769 23.0823 37.2781 23.0823Z"
		fill="#0F131D"
	/>
	<path
		d="M34.305 14.0935C34.305 15.1652 34.305 16.3574 34.305 17.5363C34.305 18.2061 34.2782 18.8759 34.3184 19.5457C34.3452 19.9476 34.2246 20.0816 33.8094 20.0816C31.9341 20.0548 30.0722 20.0682 28.3711 20.0682C30.2999 18.1391 32.3092 16.1029 34.305 14.0935Z"
		fill="#B5BDD1"
	/>
	<path
		d="M41.6842 20.0815C39.5946 20.0815 37.6122 20.0815 35.6432 20.0815C35.3753 20.0815 35.2949 19.961 35.2949 19.7199C35.2949 17.8176 35.2949 15.9154 35.2949 13.9327C37.4247 15.9957 39.5143 17.9918 41.6842 20.0815Z"
		fill="#B5BDD1"
	/>
	<path
		d="M188.922 13.3021H194.017L197.522 21.8437H197.699L201.204 13.3021H206.299V28.3823H202.294V19.6641H202.176L198.818 28.2645H196.403L193.045 19.6052H192.928V28.3823H188.922V13.3021Z"
		fill="white"
	/>
	<path
		d="M182.881 13.3021H186.976V22.9629C186.976 24.1116 186.701 25.1056 186.151 25.9451C185.606 26.7796 184.845 27.4251 183.868 27.8816C182.891 28.3333 181.757 28.5591 180.466 28.5591C179.165 28.5591 178.027 28.3333 177.05 27.8816C176.073 27.4251 175.312 26.7796 174.767 25.9451C174.227 25.1056 173.957 24.1116 173.957 22.9629V13.3021H178.051V22.6094C178.051 23.0758 178.154 23.4931 178.36 23.8612C178.567 24.2245 178.851 24.5092 179.214 24.7154C179.583 24.9216 180 25.0246 180.466 25.0246C180.938 25.0246 181.355 24.9216 181.718 24.7154C182.081 24.5092 182.366 24.2245 182.572 23.8612C182.778 23.4931 182.881 23.0758 182.881 22.6094V13.3021Z"
		fill="white"
	/>
	<path d="M172.016 13.3021V28.3823H167.922V13.3021H172.016Z" fill="white" />
	<path
		d="M161.698 18.2798C161.634 18.0196 161.533 17.7913 161.396 17.595C161.259 17.3937 161.087 17.2244 160.881 17.0869C160.679 16.9445 160.444 16.839 160.174 16.7703C159.909 16.6966 159.617 16.6598 159.297 16.6598C158.61 16.6598 158.024 16.8243 157.538 17.1532C157.057 17.4821 156.688 17.9558 156.433 18.5743C156.183 19.1928 156.058 19.939 156.058 20.8128C156.058 21.6964 156.178 22.4524 156.418 23.0807C156.659 23.709 157.017 24.1901 157.493 24.5239C157.97 24.8577 158.561 25.0246 159.268 25.0246C159.891 25.0246 160.409 24.9338 160.822 24.7522C161.239 24.5706 161.551 24.3128 161.757 23.979C161.963 23.6452 162.066 23.2525 162.066 22.8009L162.773 22.8745H159.327V19.9586H166.013V22.0498C166.013 23.4243 165.721 24.6 165.137 25.5769C164.557 26.5489 163.757 27.295 162.736 27.8154C161.72 28.3308 160.554 28.5885 159.239 28.5885C157.771 28.5885 156.482 28.2768 155.373 27.6534C154.263 27.0299 153.397 26.1414 152.773 24.9878C152.155 23.8342 151.846 22.4622 151.846 20.8717C151.846 19.6248 152.035 18.5203 152.413 17.5582C152.796 16.596 153.326 15.7836 154.003 15.1209C154.681 14.4533 155.464 13.9501 156.352 13.6114C157.241 13.2678 158.193 13.0959 159.209 13.0959C160.103 13.0959 160.932 13.2236 161.698 13.4788C162.469 13.7292 163.149 14.0875 163.738 14.5539C164.332 15.0153 164.81 15.5627 165.173 16.1959C165.537 16.8292 165.758 17.5238 165.836 18.2798H161.698Z"
		fill="white"
	/>
	<path
		d="M139.006 28.3823V13.3021H149.874V16.6009H143.1V19.1928H149.315V22.4916H143.1V25.0835H149.845V28.3823H139.006Z"
		fill="white"
	/>
	<path d="M127.16 28.3823V13.3021H131.254V25.0835H137.351V28.3823H127.16Z" fill="white" />
	<path d="M115.314 28.3823V13.3021H119.408V25.0835H125.505V28.3823H115.314Z" fill="white" />
	<path
		d="M113.42 20.8422C113.42 22.5211 113.093 23.9373 112.44 25.0909C111.788 26.2396 110.906 27.1109 109.797 27.7049C108.688 28.294 107.451 28.5885 106.086 28.5885C104.711 28.5885 103.469 28.2915 102.36 27.6975C101.256 27.0987 100.377 26.2249 99.7239 25.0762C99.0759 23.9226 98.752 22.5113 98.752 20.8422C98.752 19.1634 99.0759 17.7496 99.7239 16.6009C100.377 15.4473 101.256 14.576 102.36 13.9869C103.469 13.3929 104.711 13.0959 106.086 13.0959C107.451 13.0959 108.688 13.3929 109.797 13.9869C110.906 14.576 111.788 15.4473 112.44 16.6009C113.093 17.7496 113.42 19.1634 113.42 20.8422ZM109.208 20.8422C109.208 19.939 109.088 19.1781 108.847 18.5596C108.612 17.9361 108.261 17.4649 107.794 17.1458C107.333 16.8218 106.763 16.6598 106.086 16.6598C105.408 16.6598 104.837 16.8218 104.37 17.1458C103.909 17.4649 103.558 17.9361 103.317 18.5596C103.082 19.1781 102.964 19.939 102.964 20.8422C102.964 21.7455 103.082 22.5088 103.317 23.1322C103.558 23.7508 103.909 24.222 104.37 24.546C104.837 24.8651 105.408 25.0246 106.086 25.0246C106.763 25.0246 107.333 24.8651 107.794 24.546C108.261 24.222 108.612 23.7508 108.847 23.1322C109.088 22.5088 109.208 21.7455 109.208 20.8422Z"
		fill="white"
	/>
	<path
		d="M96.9541 18.9572H92.8012C92.7717 18.6136 92.6932 18.3019 92.5655 18.0221C92.4428 17.7422 92.271 17.5017 92.0501 17.3004C91.8341 17.0943 91.5715 16.9372 91.2622 16.8292C90.953 16.7163 90.602 16.6598 90.2092 16.6598C89.522 16.6598 88.9403 16.8267 88.4641 17.1605C87.9929 17.4943 87.6345 17.973 87.3891 18.5964C87.1485 19.2198 87.0283 19.9684 87.0283 20.8422C87.0283 21.7651 87.151 22.5383 87.3964 23.1617C87.6468 23.7802 88.0076 24.2466 88.4789 24.5607C88.9501 24.87 89.5171 25.0246 90.1798 25.0246C90.5578 25.0246 90.8965 24.978 91.1959 24.8847C91.4954 24.7866 91.7556 24.6467 91.9765 24.465C92.1974 24.2834 92.3765 24.0649 92.514 23.8097C92.6563 23.5495 92.7521 23.2574 92.8012 22.9334L96.9541 22.9629C96.905 23.601 96.7258 24.2515 96.4166 24.9142C96.1073 25.572 95.668 26.1807 95.0985 26.7403C94.534 27.295 93.8345 27.7417 93 28.0804C92.1655 28.4192 91.1959 28.5885 90.0914 28.5885C88.7071 28.5885 87.4652 28.2915 86.3656 27.6975C85.2709 27.1036 84.4044 26.2298 83.7663 25.0762C83.133 23.9226 82.8164 22.5113 82.8164 20.8422C82.8164 19.1634 83.1404 17.7496 83.7884 16.6009C84.4364 15.4473 85.3101 14.576 86.4097 13.9869C87.5093 13.3929 88.7366 13.0959 90.0914 13.0959C91.0438 13.0959 91.92 13.226 92.7202 13.4862C93.5203 13.7464 94.2223 14.1268 94.8261 14.6275C95.4299 15.1233 95.9159 15.7345 96.284 16.461C96.6522 17.1875 96.8756 18.0196 96.9541 18.9572Z"
		fill="white"
	/>
	<path
		d="M200.113 43.1395V33.9513H202.608V41.1295H206.322V43.1395H200.113Z"
		fill="#B5BDD1"
	/>
	<path
		d="M192.444 43.1395H189.752L192.785 33.9513H196.194L199.227 43.1395H196.535L194.525 36.4816H194.454L192.444 43.1395ZM191.941 39.5144H197.002V41.3808H191.941V39.5144Z"
		fill="#B5BDD1"
	/>
	<path
		d="M188.878 33.9513V43.1395H186.796L183.476 38.3121H183.422V43.1395H180.928V33.9513H183.045L186.311 38.7607H186.383V33.9513H188.878Z"
		fill="#B5BDD1"
	/>
	<path
		d="M179.775 38.5454C179.775 39.5683 179.576 40.4312 179.178 41.134C178.78 41.8339 178.243 42.3648 177.568 42.7267C176.892 43.0856 176.138 43.2651 175.306 43.2651C174.469 43.2651 173.712 43.0841 173.036 42.7222C172.363 42.3573 171.828 41.8249 171.43 41.1251C171.035 40.4222 170.838 39.5623 170.838 38.5454C170.838 37.5225 171.035 36.6611 171.43 35.9612C171.828 35.2583 172.363 34.7275 173.036 34.3685C173.712 34.0066 174.469 33.8257 175.306 33.8257C176.138 33.8257 176.892 34.0066 177.568 34.3685C178.243 34.7275 178.78 35.2583 179.178 35.9612C179.576 36.6611 179.775 37.5225 179.775 38.5454ZM177.209 38.5454C177.209 37.995 177.135 37.5315 176.989 37.1546C176.845 36.7747 176.631 36.4876 176.347 36.2932C176.066 36.0958 175.719 35.9971 175.306 35.9971C174.894 35.9971 174.545 36.0958 174.261 36.2932C173.98 36.4876 173.766 36.7747 173.619 37.1546C173.476 37.5315 173.404 37.995 173.404 38.5454C173.404 39.0957 173.476 39.5608 173.619 39.9407C173.766 40.3175 173.98 40.6046 174.261 40.802C174.545 40.9965 174.894 41.0937 175.306 41.0937C175.719 41.0937 176.066 40.9965 176.347 40.802C176.631 40.6046 176.845 40.3175 176.989 39.9407C177.135 39.5608 177.209 39.0957 177.209 38.5454Z"
		fill="#B5BDD1"
	/>
	<path d="M169.692 33.9513V43.1395H167.197V33.9513H169.692Z" fill="#B5BDD1" />
	<path
		d="M158.271 35.9612V33.9513H166.257V35.9612H163.494V43.1395H161.035V35.9612H158.271Z"
		fill="#B5BDD1"
	/>
	<path
		d="M152.014 43.1395H149.322L152.355 33.9513H155.765L158.798 43.1395H156.106L154.096 36.4816H154.024L152.014 43.1395ZM151.512 39.5144H156.572V41.3808H151.512V39.5144Z"
		fill="#B5BDD1"
	/>
	<path
		d="M148.448 33.9513V43.1395H146.366L143.046 38.3121H142.992V43.1395H140.498V33.9513H142.616L145.882 38.7607H145.954V33.9513H148.448Z"
		fill="#B5BDD1"
	/>
	<path
		d="M132.059 43.1395V33.9513H136.025C136.707 33.9513 137.303 34.0754 137.815 34.3237C138.326 34.5719 138.724 34.9293 139.008 35.3959C139.292 35.8625 139.434 36.4218 139.434 37.0738C139.434 37.7318 139.288 38.2867 138.995 38.7383C138.704 39.1899 138.296 39.5309 137.77 39.7612C137.246 39.9915 136.635 40.1066 135.935 40.1066H133.566V38.1685H135.432C135.725 38.1685 135.975 38.1326 136.182 38.0608C136.391 37.9861 136.551 37.8679 136.662 37.7064C136.775 37.5449 136.832 37.334 136.832 37.0738C136.832 36.8106 136.775 36.5968 136.662 36.4323C136.551 36.2648 136.391 36.1422 136.182 36.0644C135.975 35.9836 135.725 35.9433 135.432 35.9433H134.553V43.1395H132.059ZM137.442 38.9222L139.739 43.1395H137.03L134.786 38.9222H137.442Z"
		fill="#B5BDD1"
	/>
	<path
		d="M124.199 43.1395V33.9513H130.821V35.9612H126.694V37.5404H130.48V39.5503H126.694V41.1295H130.803V43.1395H124.199Z"
		fill="#B5BDD1"
	/>
	<path
		d="M115.275 35.9612V33.9513H123.261V35.9612H120.498V43.1395H118.039V35.9612H115.275Z"
		fill="#B5BDD1"
	/>
	<path
		d="M114.346 33.9513V43.1395H112.265L108.945 38.3121H108.891V43.1395H106.396V33.9513H108.514L111.78 38.7607H111.852V33.9513H114.346Z"
		fill="#B5BDD1"
	/>
	<path d="M105.215 33.9513V43.1395H102.721V33.9513H105.215Z" fill="#B5BDD1" />
	<path
		d="M92.8262 43.1395V33.9513H99.2866V35.9612H95.3206V37.5404H98.8918V39.5503H95.3206V43.1395H92.8262Z"
		fill="#B5BDD1"
	/>
	<path
		d="M91.6713 38.5454C91.6713 39.5683 91.4724 40.4312 91.0746 41.134C90.6768 41.8339 90.1399 42.3648 89.464 42.7267C88.788 43.0856 88.0343 43.2651 87.2028 43.2651C86.3654 43.2651 85.6087 43.0841 84.9327 42.7222C84.2598 42.3573 83.7244 41.8249 83.3266 41.1251C82.9318 40.4222 82.7344 39.5623 82.7344 38.5454C82.7344 37.5225 82.9318 36.6611 83.3266 35.9612C83.7244 35.2583 84.2598 34.7275 84.9327 34.3685C85.6087 34.0066 86.3654 33.8257 87.2028 33.8257C88.0343 33.8257 88.788 34.0066 89.464 34.3685C90.1399 34.7275 90.6768 35.2583 91.0746 35.9612C91.4724 36.6611 91.6713 37.5225 91.6713 38.5454ZM89.1051 38.5454C89.1051 37.995 89.0318 37.5315 88.8852 37.1546C88.7417 36.7747 88.5278 36.4876 88.2437 36.2932C87.9625 36.0958 87.6156 35.9971 87.2028 35.9971C86.7901 35.9971 86.4416 36.0958 86.1575 36.2932C85.8764 36.4876 85.6625 36.7747 85.5159 37.1546C85.3724 37.5315 85.3006 37.995 85.3006 38.5454C85.3006 39.0957 85.3724 39.5608 85.5159 39.9407C85.6625 40.3175 85.8764 40.6046 86.1575 40.802C86.4416 40.9965 86.7901 41.0937 87.2028 41.0937C87.6156 41.0937 87.9625 40.9965 88.2437 40.802C88.5278 40.6046 88.7417 40.3175 88.8852 39.9407C89.0318 39.5608 89.1051 39.0957 89.1051 38.5454Z"
		fill="#B5BDD1"
	/>
	<path
		d="M173.708 51.4592C173.684 51.1601 173.572 50.9268 173.371 50.7593C173.174 50.5918 172.873 50.5081 172.47 50.5081C172.212 50.5081 172.001 50.5395 171.837 50.6023C171.675 50.6621 171.556 50.7444 171.478 50.849C171.4 50.9537 171.36 51.0734 171.357 51.208C171.351 51.3186 171.37 51.4188 171.415 51.5085C171.463 51.5953 171.538 51.6745 171.64 51.7463C171.741 51.8151 171.871 51.8779 172.03 51.9348C172.188 51.9916 172.377 52.0424 172.595 52.0873L173.349 52.2488C173.857 52.3565 174.292 52.4985 174.654 52.675C175.016 52.8515 175.312 53.0593 175.543 53.2986C175.773 53.5349 175.942 53.8011 176.05 54.0972C176.16 54.3933 176.217 54.7163 176.22 55.0663C176.217 55.6704 176.066 56.1819 175.767 56.6006C175.468 57.0193 175.04 57.3379 174.484 57.5562C173.931 57.7746 173.265 57.8837 172.487 57.8837C171.689 57.8837 170.992 57.7656 170.397 57.5293C169.805 57.293 169.344 56.9296 169.015 56.4391C168.689 55.9456 168.524 55.3145 168.521 54.5458H170.89C170.905 54.827 170.976 55.0633 171.101 55.2547C171.227 55.4461 171.403 55.5912 171.631 55.6899C171.861 55.7886 172.135 55.8379 172.452 55.8379C172.718 55.8379 172.941 55.805 173.12 55.7392C173.3 55.6734 173.436 55.5822 173.528 55.4656C173.621 55.3489 173.669 55.2158 173.672 55.0663C173.669 54.9257 173.623 54.8031 173.533 54.6984C173.446 54.5907 173.302 54.495 173.102 54.4113C172.902 54.3245 172.631 54.2438 172.29 54.169L171.375 53.9716C170.561 53.7951 169.92 53.5005 169.45 53.0878C168.984 52.672 168.752 52.1052 168.755 51.3874C168.752 50.8042 168.907 50.2942 169.221 49.8576C169.538 49.4179 169.977 49.0754 170.536 48.8302C171.098 48.5849 171.743 48.4623 172.47 48.4623C173.211 48.4623 173.853 48.5864 174.394 48.8347C174.936 49.0829 175.353 49.4328 175.646 49.8845C175.942 50.3331 176.092 50.858 176.095 51.4592H173.708Z"
		fill="#B5BDD1"
	/>
	<path
		d="M160.316 57.776V48.5879H164.282C164.964 48.5879 165.561 48.712 166.072 48.9603C166.584 49.2085 166.982 49.5659 167.266 50.0325C167.55 50.4991 167.692 51.0584 167.692 51.7104C167.692 52.3684 167.545 52.9233 167.252 53.3749C166.962 53.8265 166.554 54.1675 166.028 54.3978C165.504 54.6281 164.893 54.7432 164.193 54.7432H161.824V52.8051H163.69C163.983 52.8051 164.233 52.7692 164.439 52.6974C164.649 52.6227 164.809 52.5045 164.919 52.343C165.033 52.1815 165.09 51.9706 165.09 51.7104C165.09 51.4472 165.033 51.2334 164.919 51.0689C164.809 50.9014 164.649 50.7788 164.439 50.701C164.233 50.6202 163.983 50.5799 163.69 50.5799H162.811V57.776H160.316ZM165.7 53.5588L167.997 57.776H165.287L163.044 53.5588H165.7Z"
		fill="#B5BDD1"
	/>
	<path
		d="M152.457 57.776V48.5879H159.079V50.5978H154.951V52.177H158.738V54.1869H154.951V55.7661H159.061V57.776H152.457Z"
		fill="#B5BDD1"
	/>
	<path
		d="M142.42 48.5879H145.201L146.996 52.3206H147.068L148.862 48.5879H151.644L148.27 54.8868V57.776H145.794V54.8868L142.42 48.5879Z"
		fill="#B5BDD1"
	/>
	<path
		d="M131.311 57.776L128.602 48.5879H131.383L132.639 54.2408H132.711L134.201 48.5879H136.39L137.879 54.2587H137.951L139.207 48.5879H141.989L139.279 57.776H136.892L135.331 52.6436H135.259L133.698 57.776H131.311Z"
		fill="#B5BDD1"
	/>
	<path
		d="M122.383 57.776H119.691L122.724 48.5879H126.134L129.167 57.776H126.475L124.465 51.1182H124.393L122.383 57.776ZM121.881 54.151H126.941V56.0174H121.881V54.151Z"
		fill="#B5BDD1"
	/>
	<path d="M112.779 57.776V48.5879H115.274V55.7661H118.988V57.776H112.779Z" fill="#B5BDD1" />
	<path
		d="M179.799 49.9187C179.799 49.4932 180.04 49.1483 180.338 49.1483H197.132C197.429 49.1483 197.671 49.4932 197.671 49.9187C197.671 50.3441 197.429 50.689 197.132 50.689H180.338C180.04 50.689 179.799 50.3441 179.799 49.9187Z"
		fill="#B5BDD1"
	/>
	<path
		d="M91.3613 49.9187C91.3613 49.4932 91.6028 49.1483 91.9006 49.1483H108.694C108.992 49.1483 109.233 49.4932 109.233 49.9187C109.233 50.3441 108.992 50.689 108.694 50.689H91.9006C91.6028 50.689 91.3613 50.3441 91.3613 49.9187Z"
		fill="#B5BDD1"
	/>
</svg>
