<svg width="154" height="156" viewBox="0 0 154 156" fill="none" xmlns="http://www.w3.org/2000/svg">
	<g opacity="0.1">
		<path
			d="M153.198 78.2492C152.694 103.036 142.931 123.392 123.587 138.92C113.536 146.99 102.044 152.43 89.2916 154.628C71.7479 157.618 55.0688 154.88 39.5784 145.873C21.1341 135.173 8.66974 119.717 2.79781 99.1813C0.0960062 89.742 -0.444356 80.0506 0.31215 70.2151C1.39287 56.1643 5.89588 43.4466 14.2174 32.0979C25.8532 16.3538 41.1274 5.72565 60.2922 1.76262C83.6358 -3.10111 104.926 2.15892 123.839 16.8222C137.924 27.7385 147.074 41.7893 151.037 59.1906C152.478 65.4594 153.414 71.7643 153.198 78.2492ZM149.164 77.4927C149.344 71.7643 148.767 66.0359 147.471 60.3435C143.688 43.6267 134.934 30.1524 121.353 19.7404C102.945 5.6536 82.375 0.717815 59.7159 5.97785C42.7125 9.90486 29.1674 19.4522 18.3962 33.0346C10.2188 43.3745 5.85986 55.2636 4.23878 68.3056C3.04998 77.8529 3.66239 87.2922 6.03998 96.5513C9.9666 111.863 18.1441 124.617 30.2482 134.813C42.4963 145.116 56.5818 150.917 72.5765 151.782C82.8073 152.322 92.7139 150.593 102.188 146.738C116.346 140.973 128.018 131.93 136.627 119.321C145.201 106.783 149.632 92.8764 149.164 77.4927Z"
			fill="white"
		/>
		<path
			d="M68.1094 144.107C67.8572 144.143 67.7492 144.179 67.6411 144.143C63.8225 143.386 63.8225 143.386 63.7865 139.459C63.7865 123.427 63.7505 107.395 63.7865 91.3985C63.7865 89.8853 63.3902 88.6964 62.0213 87.9758C60.2201 87.0391 58.1307 88.0479 57.6624 90.2096C57.4823 91.0022 57.5183 91.8668 57.5183 92.7315C57.5183 108.8 57.5183 124.904 57.5543 140.972C57.5543 141.297 57.5183 141.657 57.5183 142.197C56.2575 141.693 55.2128 141.189 54.096 140.828C53.0513 140.504 53.4116 139.675 53.4116 139.063C53.3756 129.588 53.3756 120.112 53.4116 110.601C53.4116 102.243 53.4476 93.9204 53.4116 85.562C53.4116 84.4451 53.5917 84.0488 54.8525 84.0488C69.4423 84.0849 84.032 84.0849 98.5858 84.0849C99.6665 84.0849 99.9907 84.337 99.9907 85.4539C99.9547 103.288 99.9547 121.121 100.027 138.919C100.027 140.324 99.3063 140.576 98.2976 140.936C95.7038 141.837 95.7399 141.873 95.7399 139.207C95.7038 123.319 95.6678 107.395 95.6318 91.5065C95.6318 89.0206 94.5871 87.6876 92.6418 87.6876C90.7325 87.6876 89.4357 89.2728 89.4357 91.6507C89.4357 108.043 89.4357 124.436 89.3996 140.792C89.3996 141.513 89.8319 142.558 89.0394 142.954C87.9226 143.494 86.6618 143.819 85.437 143.927C84.6084 143.999 85.0407 143.098 85.0407 142.666C85.0047 137.154 84.9687 131.605 84.9687 126.093C84.9687 114.997 85.0047 103.9 85.0047 92.7675C85.0047 92.155 85.0407 91.5786 84.9687 90.9661C84.7525 89.0567 83.2395 87.5075 81.6545 87.5435C80.0334 87.5795 78.7005 89.1647 78.7005 91.2183C78.7005 95.4696 78.7365 99.7569 78.7365 104.008C78.7725 117.194 78.7725 130.416 78.8086 143.602C78.8086 144.683 78.4483 144.899 77.4757 144.935C74.3055 145.044 74.3055 145.08 74.3055 141.909C74.3055 125.12 74.3416 108.295 74.3416 91.5065C74.3416 89.1648 73.1528 87.6156 71.3155 87.6156C69.4063 87.6156 68.0734 89.2008 68.0734 91.5786C68.0734 108.44 68.0734 125.3 68.0734 142.161C68.1094 142.81 68.1094 143.458 68.1094 144.107Z"
			fill="white"
		/>
		<path
			d="M123.009 90.3187C114.76 90.5708 105.105 83.2212 105.537 71.9085C105.754 65.964 110.04 60.6319 115.948 59.0107C121.46 57.4975 127.44 59.7672 130.358 64.4508C134.321 70.7557 131.403 78.7538 124.522 80.6272C120.019 81.8161 115.372 78.8259 114.652 74.2143C114.255 71.7284 116.777 68.2337 119.227 67.8735C120.668 67.6573 121.964 68.0896 122.361 69.6028C122.721 70.9718 122.072 71.9806 120.704 72.557C119.947 72.8813 118.65 72.7372 118.758 74.1783C118.902 75.6914 119.875 76.4841 121.28 76.8443C124.594 77.673 127.836 75.2231 128.269 71.6203C128.845 66.9728 125.279 62.8296 120.559 62.4333C113.571 61.8568 108.996 67.3691 109.68 74.3224C110.293 80.303 113.751 84.0499 119.299 85.7071C124.918 87.3644 129.89 85.599 134.032 81.5279C140.877 74.7908 140.049 60.9562 129.602 56.0564C128.521 55.552 127.548 54.8675 126.648 54.0028C126.395 53.7506 125.999 53.4984 126.143 53.1382C126.323 52.5977 126.864 52.8499 127.224 52.886C135.041 53.3183 139.148 56.6689 141.381 64.3427C144.624 75.5834 139.112 86.2475 128.341 89.5621C126.576 90.1025 124.81 90.3187 123.009 90.3187Z"
			fill="white"
		/>
		<path
			d="M26.9692 52.7422C25.9245 54.5436 24.4475 55.2641 23.0066 55.9486C14.2527 60.1278 11.659 73.2059 17.9632 80.7717C21.7097 85.3111 26.681 87.3287 32.4449 86.1758C37.5603 85.167 41.3068 82.1767 42.9639 76.9888C45.0173 70.6119 41.8111 64.271 35.651 62.7218C32.0846 61.8211 28.8425 62.6138 26.3928 65.496C24.3395 67.9098 24.0513 70.6479 25.204 73.5661C26.2848 76.1962 29.2748 77.6733 31.9405 76.8086C32.8051 76.5564 33.5616 76.1241 34.0299 75.2234C34.7504 73.8183 34.4983 73.2419 32.9492 72.8816C31.6884 72.5934 30.7517 71.9809 30.6077 70.5398C30.4996 69.2789 31.112 68.4863 32.1927 68.0179C32.7691 67.7657 33.3455 67.8017 33.9219 68.0539C35.9752 68.8465 37.5603 70.2156 38.1007 72.3412C38.7131 74.7911 37.8125 76.9527 35.9392 78.646C31.112 83.0054 23.2948 80.5195 21.2414 73.7823C18.9719 66.2525 25.0239 57.5699 34.2821 58.5787C40.8745 59.2992 45.8458 63.8387 47.0707 69.6752C48.9439 78.3938 43.3242 87.4368 34.6423 89.7786C23.2587 92.8409 11.731 84.6987 10.7224 72.9537C10.182 66.7569 11.659 61.2447 15.7657 56.5251C17.8912 54.1112 20.5209 52.7782 23.7991 52.9223C24.8078 52.9944 25.7804 52.8142 26.9692 52.7422Z"
			fill="white"
		/>
		<path
			d="M48.043 39.2289C53.7348 34.5813 58.7781 29.5735 63.9296 24.6738C67.9643 20.8188 71.9269 16.8918 75.8536 12.9287C76.502 12.2803 76.6101 12.6045 77.0424 13.0008C81.9776 17.7925 86.9129 22.6202 91.8843 27.3758C95.8109 31.1227 99.7375 34.9416 103.916 38.4363C104.241 38.6885 104.637 38.8686 105.177 39.1929C102.475 40.2737 50.5286 40.2377 48.043 39.2289ZM75.2411 19.9902C69.8736 25.3943 64.4699 30.8345 59.2465 36.0585C63.8215 36.0585 68.8289 36.0225 73.8722 36.0945C74.989 36.0945 75.3132 35.7703 75.2411 34.6534C75.1691 32.852 75.2051 31.0506 75.2051 29.2493C75.2411 26.0788 75.2411 22.8724 75.2411 19.9902ZM95.0904 36.0945C89.2545 30.4742 83.6348 25.0701 77.9069 19.5578C77.9069 24.8899 77.9069 30.0058 77.9069 35.1218C77.9069 35.7703 78.1591 36.0945 78.8436 36.0945C84.1391 36.0945 89.4707 36.0945 95.0904 36.0945Z"
			fill="white"
		/>
		<path
			d="M112.994 53.1724C111.553 55.9105 109.356 56.9913 106.618 57.0633C100.926 57.1714 95.2342 57.1714 89.5424 57.1714C75.1328 57.1714 60.7592 57.1354 46.3496 57.1354C43.3596 57.1354 41.1261 55.9105 39.541 53.1724C64.0734 53.1724 88.3897 53.1724 112.994 53.1724Z"
			fill="white"
		/>
		<path
			d="M49.9883 61.1729C67.6041 61.1729 85.0757 61.1729 102.836 61.1729C101.142 63.2625 99.7736 64.9197 96.7115 64.8837C83.5267 64.7036 70.3059 64.7396 57.085 64.9558C53.9149 65.0278 51.6454 64.0911 49.9883 61.1729Z"
			fill="white"
		/>
		<path
			d="M76.7546 76.3394C83.8874 76.3394 91.0201 76.4115 98.1529 76.3034C99.9181 76.2673 99.81 77.096 99.846 78.3209C99.8821 79.69 99.7019 80.2664 98.0809 80.2664C83.7433 80.1944 69.4057 80.1583 55.0681 80.2664C53.0868 80.2664 53.447 79.2576 53.339 78.0687C53.1949 76.6276 53.7352 76.3034 55.1402 76.3034C62.345 76.3754 69.5498 76.3394 76.7546 76.3394Z"
			fill="white"
		/>
		<path
			d="M76.7186 72.3038C69.5858 72.3038 62.417 72.2678 55.2843 72.3399C53.8073 72.3399 53.375 71.9796 53.375 70.4664C53.375 69.0253 53.7713 68.665 55.2122 68.665C69.5138 68.7371 83.7793 68.7371 98.0809 68.7011C99.5218 68.7011 99.8821 69.0974 99.8461 70.5024C99.81 71.7634 99.702 72.3399 98.1529 72.3399C91.0202 72.2318 83.8874 72.3038 76.7186 72.3038Z"
			fill="white"
		/>
		<path
			d="M38.894 47.7326C31.9774 47.7326 25.0968 47.6965 18.1802 47.7686C17.0274 47.7686 16.487 47.6605 16.5591 46.2915C16.6672 43.7695 16.5591 43.7695 19.1528 43.7695C32.5898 43.7695 46.0268 43.8056 59.4638 43.7695C60.8327 43.7695 61.3731 44.0217 61.265 45.5349C61.1569 46.8319 61.4091 47.8046 59.3917 47.7686C52.5472 47.6245 45.7026 47.6965 38.858 47.6965C38.894 47.7326 38.894 47.7326 38.894 47.7326Z"
			fill="white"
		/>
		<path
			d="M113.859 47.7326C107.086 47.7326 100.314 47.6606 93.541 47.7686C91.7038 47.8047 91.92 46.868 91.92 45.679C91.92 44.5262 91.7759 43.6975 93.505 43.7336C107.158 43.8056 120.847 43.8056 134.5 43.7336C136.338 43.7336 136.085 44.7063 136.122 45.8232C136.158 46.976 136.266 47.8047 134.536 47.7686C127.656 47.6606 120.775 47.7326 113.859 47.7326Z"
			fill="white"
		/>
		<path
			d="M59.1031 12.4263C59.1751 12.7865 59.2111 12.9667 59.2472 13.1468C59.6795 15.5967 58.7789 16.9657 56.4733 18.2267C47.4313 23.2346 38.7855 28.8909 30.8242 35.52C28.2304 37.6816 25.5647 37.8618 22.3945 37.5015C33.526 27.3777 45.4139 18.6951 59.1031 12.4263Z"
			fill="white"
		/>
		<path
			d="M130.502 37.3943C126.972 38.259 124.342 37.1781 121.712 35.1606C113.21 28.6396 104.24 22.8392 95.0183 17.435C94.1898 16.9306 93.8295 16.3902 93.9016 15.4535C93.9736 14.5528 93.9016 13.6881 93.9016 12.5713C107.375 19.0923 119.226 27.6669 130.502 37.3943Z"
			fill="white"
		/>
		<path
			d="M130.971 98.6771C128.125 102.28 124.379 104.153 120.236 105.342C116.057 106.567 111.914 107.936 108.816 111.215C108.132 111.935 107.483 112.692 106.799 113.448C110.725 101.775 117.714 97.0198 130.971 98.6771Z"
			fill="white"
		/>
		<path
			d="M21.8184 98.6027C35.2914 96.8734 42.8204 103.43 46.1706 112.942C44.6576 111.681 43.3247 110.456 41.8838 109.411C38.4975 106.925 34.4628 105.988 30.6082 104.619C27.222 103.394 24.232 101.665 21.8184 98.6027Z"
			fill="white"
		/>
		<path
			d="M45.8469 122.166C42.2805 118.707 37.9576 118.203 33.7788 117.23C29.2398 116.185 25.4212 113.879 22.2871 110.313C33.7067 108.908 42.0643 112.222 45.8469 122.166Z"
			fill="white"
		/>
		<path
			d="M107.52 121.157C111.626 111.609 119.371 108.763 130.431 110.492C127.153 113.915 123.478 116.401 118.831 117.193C114.832 117.878 110.834 118.527 107.52 121.157Z"
			fill="white"
		/>
		<path
			d="M47.1423 135.496C42.0269 131.605 36.5512 128.722 32.8047 123.642C41.0182 121.805 47.1062 125.696 47.1423 135.496Z"
			fill="white"
		/>
		<path
			d="M105.537 135.711C106.87 124.939 109.608 122.633 120.091 123.426C116.38 128.83 110.508 131.532 105.537 135.711Z"
			fill="white"
		/>
		<path
			d="M37.5254 95.8305C40.7676 95.0739 43.2172 93.5968 45.8109 92.1196C47.0357 96.1907 47.2159 100.262 47.2159 104.945C44.5501 101.018 41.3079 98.3884 37.5254 95.8305Z"
			fill="white"
		/>
		<path
			d="M115.444 95.9376C111.446 98.2074 108.528 100.909 106.078 104.152C106.438 100.117 106.078 96.0818 107.339 91.9746C109.681 93.812 112.166 95.073 115.444 95.9376Z"
			fill="white"
		/>
		<path
			d="M83.2399 44.166C81.5108 46.76 79.2773 48.2371 76.4314 48.093C73.7656 47.9489 71.4601 46.76 69.875 44.166C74.378 44.166 78.6649 44.166 83.2399 44.166Z"
			fill="white"
		/>
	</g>
</svg>
