<svg width="35" height="36" viewBox="0 0 35 36" fill="none" xmlns="http://www.w3.org/2000/svg">
		<path
			d="M34.7078 17.7277C34.5936 23.3434 32.3818 27.955 27.9991 31.4729C25.7221 33.3013 23.1186 34.5338 20.2295 35.0317C16.2548 35.7091 12.4761 35.0888 8.96668 33.0482C4.78803 30.6241 1.96417 27.1225 0.633858 22.47C0.0217507 20.3315 -0.100671 18.1359 0.0707191 15.9076C0.315562 12.7243 1.33574 9.84303 3.22103 7.27193C5.85717 3.70503 9.31762 1.29717 13.6595 0.39933C18.9481 -0.702572 23.7715 0.489114 28.0563 3.81114C31.2474 6.2843 33.3204 9.46757 34.2181 13.4099C34.5446 14.8302 34.7568 16.2585 34.7078 17.7277ZM33.7938 17.5563C33.8346 16.2585 33.704 14.9607 33.4102 13.6711C32.5532 9.88384 30.57 6.83117 27.4931 4.47228C23.3226 1.28085 18.6625 0.162625 13.5289 1.35431C9.67672 2.24399 6.60803 4.40698 4.16776 7.48415C2.31511 9.82671 1.32758 12.5202 0.960315 15.475C0.690988 17.638 0.829732 19.7765 1.36839 21.8742C2.25798 25.3431 4.11063 28.2325 6.85287 30.5424C9.62775 32.8768 12.8189 34.191 16.4425 34.3869C18.7604 34.5093 21.0048 34.1175 23.1512 33.2441C26.3587 31.9382 29.003 29.8895 30.9536 27.0327C32.896 24.1922 33.8998 21.0416 33.7938 17.5563Z"
			fill="white"
		/>
		<path
			d="M15.4294 32.6481C15.3723 32.6562 15.3478 32.6644 15.3233 32.6562C14.4582 32.4848 14.4582 32.4848 14.45 31.5951C14.45 27.9629 14.4419 24.3308 14.45 20.7067C14.45 20.3639 14.3602 20.0946 14.0501 19.9313C13.642 19.7191 13.1687 19.9476 13.0626 20.4374C13.0218 20.6169 13.0299 20.8128 13.0299 21.0087C13.0299 24.6491 13.0299 28.2976 13.0381 31.938C13.0381 32.0114 13.0299 32.093 13.0299 32.2155C12.7443 32.1012 12.5076 31.9869 12.2546 31.9053C12.0179 31.8318 12.0995 31.6441 12.0995 31.5054C12.0914 29.3587 12.0914 27.212 12.0995 25.0572C12.0995 23.1636 12.1077 21.2781 12.0995 19.3844C12.0995 19.1314 12.1403 19.0416 12.426 19.0416C15.7314 19.0498 19.0367 19.0498 22.334 19.0498C22.5788 19.0498 22.6523 19.1069 22.6523 19.36C22.6441 23.4003 22.6441 27.4406 22.6604 31.4727C22.6604 31.791 22.4972 31.8482 22.2687 31.9298C21.6811 32.1338 21.6892 32.142 21.6892 31.538C21.6811 27.9385 21.6729 24.3308 21.6647 20.7312C21.6647 20.168 21.428 19.866 20.9873 19.866C20.5548 19.866 20.261 20.2251 20.261 20.7639C20.261 24.4777 20.261 28.1915 20.2528 31.8971C20.2528 32.0604 20.3507 32.2971 20.1712 32.3869C19.9182 32.5093 19.6325 32.5828 19.355 32.6073C19.1673 32.6236 19.2653 32.4195 19.2653 32.3216C19.2571 31.0728 19.2489 29.8158 19.2489 28.567C19.2489 26.053 19.2571 23.539 19.2571 21.0169C19.2571 20.8781 19.2653 20.7475 19.2489 20.6088C19.2 20.1762 18.8572 19.8252 18.4981 19.8334C18.1308 19.8415 17.8289 20.2007 17.8289 20.6659C17.8289 21.6291 17.837 22.6004 17.837 23.5635C17.8452 26.5509 17.8452 29.5464 17.8533 32.5338C17.8533 32.7787 17.7717 32.8276 17.5514 32.8358C16.8332 32.8603 16.8332 32.8684 16.8332 32.1502C16.8332 28.3466 16.8413 24.5348 16.8413 20.7312C16.8413 20.2007 16.572 19.8497 16.1558 19.8497C15.7232 19.8497 15.4212 20.2088 15.4212 20.7475C15.4212 24.5675 15.4212 28.3874 15.4212 32.2073C15.4294 32.3542 15.4294 32.5011 15.4294 32.6481Z"
			fill="white"
		/>
		<path
			d="M27.8677 20.4623C25.9988 20.5194 23.8115 18.8543 23.9094 16.2914C23.9584 14.9446 24.9296 13.7366 26.2681 13.3693C27.5168 13.0265 28.8716 13.5407 29.5326 14.6018C30.4304 16.0302 29.7693 17.8422 28.2105 18.2666C27.1903 18.536 26.1375 17.8585 25.9743 16.8138C25.8845 16.2506 26.4558 15.4588 27.0108 15.3772C27.3372 15.3282 27.631 15.4262 27.7208 15.769C27.8024 16.0791 27.6555 16.3077 27.3454 16.4383C27.174 16.5117 26.8802 16.4791 26.9047 16.8056C26.9373 17.1484 27.1577 17.328 27.476 17.4096C28.2268 17.5973 28.9613 17.0423 29.0593 16.2261C29.1899 15.1731 28.3819 14.2345 27.3127 14.1447C25.7294 14.0141 24.6929 15.2629 24.848 16.8382C24.9867 18.1932 25.7702 19.042 27.0271 19.4175C28.3003 19.793 29.4265 19.393 30.3651 18.4707C31.9158 16.9443 31.7281 13.81 29.3613 12.7C29.1164 12.5857 28.8961 12.4306 28.692 12.2347C28.6349 12.1776 28.5451 12.1205 28.5778 12.0388C28.6186 11.9164 28.741 11.9735 28.8226 11.9817C30.5936 12.0797 31.524 12.8387 32.03 14.5773C32.7646 17.1239 31.5159 19.5399 29.0756 20.2909C28.6757 20.4133 28.2758 20.4623 27.8677 20.4623Z"
			fill="white"
		/>
		<path
			d="M6.10937 11.9491C5.87269 12.3572 5.53807 12.5205 5.21161 12.6755C3.22839 13.6224 2.64076 16.5852 4.06901 18.2993C4.9178 19.3278 6.04408 19.7848 7.34991 19.5236C8.50883 19.2951 9.35762 18.6176 9.73305 17.4423C10.1982 15.9976 9.47188 14.561 8.07628 14.21C7.26829 14.006 6.53377 14.1855 5.97879 14.8385C5.51359 15.3854 5.4483 16.0057 5.70946 16.6669C5.9543 17.2627 6.6317 17.5974 7.23565 17.4015C7.43152 17.3443 7.60291 17.2464 7.70901 17.0423C7.87224 16.724 7.81511 16.5934 7.46417 16.5118C7.17852 16.4465 6.96632 16.3077 6.93368 15.9812C6.90919 15.6956 7.04794 15.516 7.29278 15.4099C7.42336 15.3527 7.55394 15.3609 7.68453 15.418C8.14973 15.5976 8.50883 15.9078 8.63125 16.3893C8.77 16.9444 8.56596 17.4341 8.14157 17.8177C7.04794 18.8054 5.27691 18.2422 4.8117 16.7158C4.29753 15.0099 5.66865 13.0428 7.76614 13.2714C9.25968 13.4346 10.386 14.4631 10.6634 15.7853C11.0878 17.7606 9.81466 19.8093 7.84776 20.3399C5.26874 21.0337 2.65709 19.189 2.42857 16.5281C2.30615 15.1242 2.64076 13.8754 3.57117 12.8061C4.05269 12.2593 4.64848 11.9573 5.39117 11.9899C5.61969 12.0062 5.84004 11.9654 6.10937 11.9491Z"
			fill="white"
		/>
		<path
			d="M10.8848 8.88765C12.1743 7.83472 13.3169 6.70017 14.484 5.59011C15.398 4.71675 16.2958 3.82707 17.1854 2.92922C17.3323 2.7823 17.3568 2.85576 17.4547 2.94554C18.5728 4.03112 19.6909 5.12486 20.8172 6.20227C21.7068 7.05115 22.5964 7.91634 23.5431 8.70808C23.6166 8.76522 23.7064 8.80603 23.8288 8.87949C23.2167 9.12435 11.4479 9.11619 10.8848 8.88765ZM17.0466 4.52902C15.8306 5.75335 14.6064 6.98585 13.423 8.16937C14.4595 8.16937 15.5939 8.16121 16.7365 8.17754C16.9895 8.17754 17.063 8.10407 17.0466 7.85105C17.0303 7.44293 17.0385 7.03482 17.0385 6.62671C17.0466 5.90843 17.0466 5.182 17.0466 4.52902ZM21.5436 8.17754C20.2214 6.90423 18.9483 5.67989 17.6506 4.43107C17.6506 5.63908 17.6506 6.79812 17.6506 7.95716C17.6506 8.10408 17.7077 8.17754 17.8628 8.17754C19.0625 8.17754 20.2704 8.17754 21.5436 8.17754Z"
			fill="white"
		/>
		<path
			d="M25.5982 12.0466C25.2717 12.667 24.7739 12.9118 24.1536 12.9282C22.8641 12.9526 21.5746 12.9526 20.2851 12.9526C17.0205 12.9526 13.7641 12.9445 10.4995 12.9445C9.82214 12.9445 9.31613 12.667 8.95703 12.0466C14.515 12.0466 20.0239 12.0466 25.5982 12.0466Z"
			fill="white"
		/>
		<path
			d="M11.3242 13.859C15.3152 13.859 19.2735 13.859 23.297 13.859C22.9135 14.3324 22.6033 14.7079 21.9096 14.6997C18.9225 14.6589 15.9273 14.6671 12.932 14.716C12.2138 14.7324 11.6996 14.5201 11.3242 13.859Z"
			fill="white"
		/>
		<path
			d="M17.3882 17.2952C19.0041 17.2952 20.6201 17.3115 22.2361 17.287C22.636 17.2788 22.6115 17.4666 22.6196 17.7441C22.6278 18.0542 22.587 18.1848 22.2197 18.1848C18.9715 18.1685 15.7232 18.1604 12.475 18.1848C12.0261 18.1848 12.1077 17.9563 12.0832 17.6869C12.0506 17.3605 12.173 17.287 12.4913 17.287C14.1236 17.3033 15.7559 17.2952 17.3882 17.2952Z"
			fill="white"
		/>
		<path
			d="M17.3804 16.3809C15.7644 16.3809 14.1403 16.3727 12.5244 16.3891C12.1897 16.3891 12.0918 16.3074 12.0918 15.9646C12.0918 15.6381 12.1816 15.5565 12.508 15.5565C15.7481 15.5728 18.98 15.5728 22.2201 15.5647C22.5466 15.5647 22.6282 15.6545 22.62 15.9728C22.6119 16.2585 22.5874 16.3891 22.2365 16.3891C20.6205 16.3646 19.0045 16.3809 17.3804 16.3809Z"
			fill="white"
		/>
		<path
			d="M8.81153 10.8142C7.24453 10.8142 5.6857 10.8061 4.1187 10.8224C3.85754 10.8224 3.73512 10.7979 3.75144 10.4877C3.77592 9.91638 3.75144 9.91638 4.33906 9.91638C7.38328 9.91638 10.4275 9.92454 13.4717 9.91638C13.7818 9.91638 13.9043 9.97352 13.8798 10.3163C13.8553 10.6102 13.9124 10.8306 13.4554 10.8224C11.9047 10.7897 10.354 10.8061 8.80337 10.8061C8.81153 10.8142 8.81153 10.8142 8.81153 10.8142Z"
			fill="white"
		/>
		<path
			d="M25.7963 10.8142C24.262 10.8142 22.7276 10.7979 21.1933 10.8224C20.777 10.8305 20.826 10.6183 20.826 10.349C20.826 10.0878 20.7933 9.90005 21.1851 9.90822C24.2783 9.92454 27.3796 9.92454 30.4728 9.90822C30.889 9.90822 30.8319 10.1286 30.8401 10.3816C30.8482 10.6428 30.8727 10.8305 30.481 10.8224C28.9221 10.7979 27.3633 10.8142 25.7963 10.8142Z"
			fill="white"
		/>
		<path
			d="M13.3907 2.81519C13.407 2.89681 13.4152 2.93762 13.4234 2.97843C13.5213 3.53346 13.3173 3.84363 12.7949 4.1293C10.7464 5.26385 8.78767 6.54533 6.98399 8.04718C6.39637 8.53691 5.79242 8.57772 5.07422 8.4961C7.5961 6.20251 10.2894 4.23541 13.3907 2.81519Z"
			fill="white"
		/>
		<path
			d="M29.5655 8.47192C28.7657 8.66781 28.1699 8.42295 27.5741 7.96586C25.648 6.4885 23.6159 5.17438 21.5265 3.95005C21.3388 3.83577 21.2572 3.71334 21.2735 3.50112C21.2898 3.29707 21.2735 3.10117 21.2735 2.84814C24.3259 4.32551 27.011 6.26812 29.5655 8.47192Z"
			fill="white"
		/>
		<path
			d="M29.6716 22.3559C29.0269 23.1721 28.1781 23.5965 27.2395 23.8659C26.2928 24.1434 25.3542 24.4535 24.6524 25.1963C24.4973 25.3596 24.3504 25.531 24.1953 25.7024C25.0849 23.0578 26.6682 21.9804 29.6716 22.3559Z"
			fill="white"
		/>
		<path
			d="M4.94336 22.3391C7.99573 21.9473 9.70147 23.4329 10.4605 25.5877C10.1177 25.302 9.81573 25.0245 9.48928 24.7878C8.7221 24.2246 7.80802 24.0124 6.93475 23.7022C6.16757 23.4247 5.49018 23.0329 4.94336 22.3391Z"
			fill="white"
		/>
		<path
			d="M10.3864 27.6773C9.57842 26.8938 8.59905 26.7795 7.65232 26.5591C6.62398 26.3224 5.75887 25.8 5.04883 24.992C7.636 24.6736 9.52945 25.4246 10.3864 27.6773Z"
			fill="white"
		/>
		<path
			d="M24.3594 27.4488C25.2898 25.2858 27.0445 24.641 29.55 25.0328C28.8074 25.8082 27.9749 26.3714 26.9221 26.551C26.0161 26.7061 25.1102 26.853 24.3594 27.4488Z"
			fill="white"
		/>
		<path
			d="M10.6799 30.6972C9.52097 29.8157 8.28043 29.1627 7.43164 28.0118C9.29245 27.5956 10.6717 28.4771 10.6799 30.6972Z"
			fill="white"
		/>
		<path
			d="M23.9102 30.7462C24.2121 28.3057 24.8324 27.7834 27.2074 27.9629C26.3667 29.1873 25.0364 29.7994 23.9102 30.7462Z"
			fill="white"
		/>
		<path
			d="M8.50195 21.711C9.23648 21.5395 9.79146 21.2049 10.3791 20.8702C10.6566 21.7926 10.6974 22.7149 10.6974 23.776C10.0934 22.8863 9.3589 22.2905 8.50195 21.711Z"
			fill="white"
		/>
		<path
			d="M26.1532 21.7351C25.2473 22.2493 24.5862 22.8615 24.0312 23.5961C24.1129 22.6819 24.0312 21.7678 24.3169 20.8373C24.8474 21.2536 25.4105 21.5392 26.1532 21.7351Z"
			fill="white"
		/>
		<path
			d="M18.858 10.0061C18.4662 10.5938 17.9602 10.9284 17.3155 10.8958C16.7115 10.8631 16.1892 10.5938 15.8301 10.0061C16.8503 10.0061 17.8215 10.0061 18.858 10.0061Z"
			fill="white"
		/>
	</svg>