<svg width="94" height="96" viewBox="0 0 94 96" fill="none" xmlns="http://www.w3.org/2000/svg">
		<path
			d="M93.8801 47.9512C93.571 63.1407 87.5885 75.6146 75.7339 85.1301C69.5749 90.0755 62.5327 93.4093 54.718 94.756C43.9672 96.5885 33.7462 94.9106 24.2537 89.3911C12.951 82.834 5.31282 73.3627 1.7145 60.7784C0.0588327 54.994 -0.272301 49.0551 0.191286 43.0279C0.853553 34.4175 3.613 26.6241 8.71246 19.6696C15.8429 10.0216 25.2029 3.50869 36.9471 1.08013C51.2521 -1.90036 64.2988 1.32299 75.8885 10.3086C84.52 16.9982 90.1272 25.6085 92.5555 36.2721C93.4386 40.1136 94.0125 43.9772 93.8801 47.9512ZM91.4076 47.4876C91.518 43.9772 91.1648 40.4668 90.3701 36.9786C88.0521 26.7345 82.6878 18.4774 74.3653 12.0969C63.0846 3.46453 50.4795 0.439878 36.5939 3.66323C26.1743 6.0697 17.8738 11.9203 11.2732 20.2436C6.26207 26.5799 3.59093 33.8656 2.59753 41.8577C1.86903 47.7083 2.24432 53.4927 3.7013 59.1667C6.10754 68.5497 11.1187 76.3653 18.5361 82.6133C26.0418 88.9275 34.6734 92.482 44.4749 93.0119C50.7444 93.343 56.8152 92.2833 62.621 89.921C71.2968 86.3886 78.4492 80.847 83.7253 73.1198C88.9793 65.4368 91.6946 56.9148 91.4076 47.4876Z"
			fill="white"
		/>
		<path
			d="M41.735 88.309C41.5805 88.3311 41.5143 88.3531 41.448 88.3311C39.108 87.8674 39.108 87.8674 39.086 85.461C39.086 75.6364 39.0639 65.8118 39.086 56.0092C39.086 55.082 38.8431 54.3534 38.0042 53.9118C36.9005 53.3378 35.6201 53.956 35.3331 55.2807C35.2227 55.7664 35.2448 56.2962 35.2448 56.8261C35.2448 66.6728 35.2448 76.5415 35.2669 86.3882C35.2669 86.5869 35.2448 86.8077 35.2448 87.1389C34.4722 86.8298 33.832 86.5207 33.1476 86.2999C32.5074 86.1012 32.7282 85.5934 32.7282 85.2181C32.7061 79.4117 32.7061 73.6052 32.7282 67.7767C32.7282 62.6546 32.7503 57.5547 32.7282 52.4326C32.7282 51.7482 32.8386 51.5054 33.6112 51.5054C42.5518 51.5274 51.4924 51.5275 60.411 51.5275C61.0732 51.5275 61.2719 51.682 61.2719 52.3664C61.2498 63.2949 61.2498 74.2234 61.294 85.1298C61.294 85.9908 60.8525 86.1454 60.2344 86.3661C58.6449 86.9181 58.667 86.9402 58.667 85.3064C58.6449 75.5701 58.6229 65.8118 58.6008 56.0755C58.6008 54.5521 57.9606 53.7352 56.7685 53.7352C55.5985 53.7352 54.8038 54.7066 54.8038 56.1638C54.8038 66.2092 54.8038 76.2545 54.7817 86.2778C54.7817 86.7194 55.0466 87.3596 54.5609 87.6025C53.8766 87.9337 53.1039 88.1324 52.3534 88.1986C51.8456 88.2428 52.1105 87.6908 52.1105 87.4259C52.0885 84.048 52.0664 80.648 52.0664 77.2701C52.0664 70.4702 52.0885 63.6702 52.0885 56.8482C52.0885 56.4729 52.1105 56.1196 52.0664 55.7443C51.9339 54.5742 51.0068 53.6248 50.0354 53.6469C49.042 53.669 48.2252 54.6404 48.2252 55.8988C48.2252 58.504 48.2473 61.1313 48.2473 63.7364C48.2694 71.8169 48.2694 79.9194 48.2915 87.9999C48.2915 88.6622 48.0707 88.7947 47.4747 88.8168C45.532 88.883 45.532 88.9051 45.532 86.9622C45.532 76.674 45.5541 66.3637 45.5541 56.0755C45.5541 54.6404 44.8256 53.6911 43.6997 53.6911C42.5297 53.6911 41.7129 54.6625 41.7129 56.1196C41.7129 66.452 41.7129 76.7844 41.7129 87.1168C41.735 87.5142 41.735 87.9116 41.735 88.309Z"
			fill="white"
		/>
		<path
			d="M75.3793 55.3475C70.324 55.502 64.4077 50.9982 64.6726 44.0658C64.8051 40.4229 67.4321 37.1554 71.0525 36.1619C74.4301 35.2347 78.0946 36.6256 79.8827 39.4957C82.311 43.3593 80.5229 48.2605 76.3065 49.4086C73.547 50.1371 70.6993 48.3047 70.2578 45.4787C70.0149 43.9554 71.5602 41.8138 73.0614 41.5931C73.9444 41.4606 74.7391 41.7255 74.9819 42.6528C75.2027 43.4917 74.8053 44.1099 73.9665 44.4632C73.5029 44.6619 72.7082 44.5736 72.7744 45.4567C72.8627 46.3839 73.4587 46.8696 74.3197 47.0904C76.3506 47.5982 78.3374 46.0969 78.6023 43.8891C78.9555 41.0411 76.7701 38.5022 73.8782 38.2593C69.5955 37.9061 66.7919 41.284 67.2113 45.545C67.5866 49.2099 69.7059 51.506 73.1055 52.5215C76.5493 53.5371 79.5957 52.4553 82.1344 49.9605C86.3288 45.832 85.8211 37.3541 79.4191 34.3516C78.7569 34.0425 78.1608 33.623 77.6089 33.0931C77.4544 32.9386 77.2116 32.784 77.2999 32.5633C77.4103 32.2321 77.7414 32.3866 77.9621 32.4087C82.7525 32.6736 85.2692 34.7269 86.6379 39.4294C88.6247 46.3177 85.2471 52.8527 78.6465 54.8839C77.5648 55.215 76.4831 55.3475 75.3793 55.3475Z"
			fill="white"
		/>
		<path
			d="M16.5256 32.3203C15.8855 33.4242 14.9804 33.8658 14.0973 34.2852C8.73296 36.8463 7.14352 44.8605 11.0067 49.4968C13.3026 52.2786 16.349 53.515 19.8811 52.8085C23.0159 52.1903 25.3117 50.3578 26.3272 47.1786C27.5855 43.2709 25.6208 39.3852 21.8459 38.4358C19.6604 37.8839 17.6736 38.3696 16.1724 40.1358C14.9141 41.615 14.7375 43.293 15.4439 45.0813C16.1062 46.6929 17.9385 47.5981 19.5721 47.0682C20.1019 46.9137 20.5655 46.6488 20.8525 46.0968C21.294 45.2358 21.1394 44.8826 20.1902 44.6618C19.4175 44.4852 18.8436 44.1098 18.7553 43.2267C18.689 42.454 19.0643 41.9683 19.7266 41.6813C20.0798 41.5267 20.433 41.5488 20.7862 41.7034C22.0445 42.1891 23.0159 43.028 23.347 44.3306C23.7223 45.8319 23.1704 47.1566 22.0225 48.1942C19.0643 50.8656 14.2739 49.3423 13.0156 45.2137C11.6249 40.5995 15.3336 35.2787 21.007 35.8969C25.0468 36.3385 28.0932 39.1203 28.8438 42.6969C29.9917 48.0397 26.548 53.5812 21.2277 55.0162C14.2519 56.8928 7.18767 51.9033 6.56955 44.7059C6.23842 40.9086 7.14352 37.5307 9.66014 34.6385C10.9626 33.1593 12.5741 32.3424 14.583 32.4307C15.2011 32.4749 15.7971 32.3645 16.5256 32.3203Z"
			fill="white"
		/>
		<path
			d="M29.4414 24.0398C32.9293 21.1917 36.0199 18.1229 39.1767 15.1204C41.6492 12.758 44.0775 10.3516 46.4838 7.92301C46.8811 7.52561 46.9473 7.72431 47.2123 7.96717C50.2366 10.9035 53.261 13.8619 56.3074 16.7762C58.7136 19.0723 61.1199 21.4125 63.6806 23.5541C63.8793 23.7086 64.1222 23.819 64.4533 24.0177C62.7976 24.68 30.9646 24.6579 29.4414 24.0398ZM46.1085 12.2502C42.8192 15.5619 39.5079 18.8957 36.3069 22.0969C39.1105 22.0969 42.179 22.0749 45.2696 22.119C45.9539 22.119 46.1526 21.9203 46.1085 21.2359C46.0643 20.132 46.0864 19.0281 46.0864 17.9242C46.1085 15.9814 46.1085 14.0165 46.1085 12.2502ZM58.2721 22.119C54.6959 18.6749 51.2521 15.3632 47.7421 11.9853C47.7421 15.2528 47.7421 18.3879 47.7421 21.5229C47.7421 21.9203 47.8966 22.119 48.316 22.119C51.5611 22.119 54.8283 22.119 58.2721 22.119Z"
			fill="white"
		/>
		<path
			d="M69.2406 32.5845C68.3576 34.2624 67.011 34.9247 65.3333 34.9689C61.8453 35.0351 58.3574 35.0351 54.8694 35.0351C46.0392 35.0351 37.231 35.013 28.4008 35.013C26.5685 35.013 25.1998 34.2624 24.2285 32.5845C39.262 32.5845 54.163 32.5845 69.2406 32.5845Z"
			fill="white"
		/>
		<path
			d="M30.6328 37.4868C41.4278 37.4868 52.1344 37.4868 63.0177 37.4868C61.9802 38.7673 61.1413 39.7829 59.2649 39.7608C51.1852 39.6504 43.0834 39.6725 34.9817 39.805C33.0391 39.8491 31.6483 39.2751 30.6328 37.4868Z"
			fill="white"
		/>
		<path
			d="M47.0329 46.7811C51.4038 46.7811 55.7748 46.8252 60.1458 46.759C61.2275 46.7369 61.1612 47.2447 61.1833 47.9953C61.2054 48.8343 61.095 49.1875 60.1016 49.1875C51.3155 49.1434 42.5295 49.1213 33.7434 49.1875C32.5292 49.1875 32.75 48.5694 32.6837 47.8408C32.5954 46.9577 32.9266 46.759 33.7875 46.759C38.2026 46.8031 42.6177 46.7811 47.0329 46.7811Z"
			fill="white"
		/>
		<path
			d="M47.0101 44.308C42.6391 44.308 38.2461 44.2859 33.8751 44.3301C32.97 44.3301 32.7051 44.1093 32.7051 43.182C32.7051 42.2989 32.9479 42.0781 33.8309 42.0781C42.5949 42.1223 51.3369 42.1223 60.1009 42.1002C60.9839 42.1002 61.2047 42.3431 61.1826 43.2041C61.1605 43.9768 61.0943 44.3301 60.145 44.3301C55.7741 44.2638 51.4031 44.308 47.0101 44.308Z"
			fill="white"
		/>
		<path
			d="M23.8333 29.2508C19.5948 29.2508 15.3784 29.2287 11.1399 29.2729C10.4335 29.2729 10.1023 29.2067 10.1465 28.3677C10.2127 26.8223 10.1465 26.8223 11.7359 26.8223C19.9701 26.8223 28.2043 26.8443 36.4385 26.8223C37.2774 26.8223 37.6085 26.9768 37.5423 27.9041C37.4761 28.6989 37.6306 29.295 36.3944 29.2729C32.2 29.1846 28.0056 29.2287 23.8113 29.2287C23.8333 29.2508 23.8333 29.2508 23.8333 29.2508Z"
			fill="white"
		/>
		<path
			d="M69.7731 29.2506C65.6228 29.2506 61.4726 29.2065 57.3224 29.2727C56.1966 29.2948 56.329 28.7208 56.329 27.9922C56.329 27.2857 56.2407 26.7779 57.3003 26.8C65.667 26.8442 74.0557 26.8442 82.4224 26.8C83.5482 26.8 83.3937 27.3961 83.4158 28.0805C83.4378 28.787 83.5041 29.2948 82.4445 29.2727C78.228 29.2065 74.0116 29.2506 69.7731 29.2506Z"
			fill="white"
		/>
		<path
			d="M36.2177 7.61475C36.2618 7.83552 36.2839 7.94591 36.306 8.0563C36.5709 9.55759 36.019 10.3965 34.6062 11.1693C29.0652 14.2381 23.767 17.7043 18.8883 21.7666C17.2989 23.0912 15.6653 23.2016 13.7227 22.9809C20.544 16.777 27.829 11.4563 36.2177 7.61475Z"
			fill="white"
		/>
		<path
			d="M79.9714 22.9157C77.808 23.4455 76.1965 22.7832 74.585 21.5469C69.3751 17.5508 63.8783 13.9963 58.227 10.6846C57.7192 10.3755 57.4985 10.0443 57.5426 9.47032C57.5868 8.91838 57.5426 8.38851 57.5426 7.7041C65.7989 11.7002 73.0618 16.9547 79.9714 22.9157Z"
			fill="white"
		/>
		<path
			d="M80.2561 60.4696C78.5121 62.6774 76.2162 63.8254 73.6776 64.554C71.1168 65.3046 68.5781 66.1436 66.6796 68.1527C66.2602 68.5942 65.8628 69.0579 65.4434 69.5215C67.8496 62.3683 72.1323 59.454 80.2561 60.4696Z"
			fill="white"
		/>
		<path
			d="M13.3691 60.4242C21.6254 59.3644 26.2392 63.3826 28.2922 69.2111C27.3651 68.4384 26.5483 67.6878 25.6652 67.0475C23.5901 65.5241 21.1177 64.9501 18.7556 64.1112C16.6805 63.3605 14.8482 62.3008 13.3691 60.4242Z"
			fill="white"
		/>
		<path
			d="M28.0937 74.8633C25.9082 72.7438 23.2591 72.4347 20.6984 71.8386C17.9168 71.1984 15.5768 69.7854 13.6562 67.5997C20.6542 66.7387 25.7757 68.7698 28.0937 74.8633Z"
			fill="white"
		/>
		<path
			d="M65.8887 74.2451C68.4053 68.3945 73.1515 66.6504 79.9287 67.7101C77.9199 69.8075 75.6682 71.3309 72.8204 71.8166C70.37 72.236 67.9196 72.6334 65.8887 74.2451Z"
			fill="white"
		/>
		<path
			d="M28.8876 83.032C25.7529 80.6477 22.3974 78.8814 20.1016 75.7685C25.1348 74.6425 28.8656 77.0269 28.8876 83.032Z"
			fill="white"
		/>
		<path
			d="M64.6719 83.1646C65.4887 76.5633 67.1664 75.1504 73.5904 75.6361C71.3166 78.9477 67.7183 80.6036 64.6719 83.1646Z"
			fill="white"
		/>
		<path
			d="M22.9961 58.7252C24.9829 58.2616 26.484 57.3564 28.0735 56.4512C28.824 58.946 28.9344 61.4407 28.9344 64.3109C27.3008 61.9044 25.314 60.2927 22.9961 58.7252Z"
			fill="white"
		/>
		<path
			d="M70.7436 58.7909C68.2932 60.1818 66.505 61.8376 65.0039 63.8246C65.2247 61.3519 65.0039 58.8792 65.7766 56.3623C67.2115 57.4883 68.7347 58.261 70.7436 58.7909Z"
			fill="white"
		/>
		<path
			d="M51.0084 27.0649C49.9488 28.6545 48.5801 29.5597 46.8361 29.4714C45.2025 29.3831 43.7897 28.6545 42.8184 27.0649C45.5778 27.0649 48.2048 27.0649 51.0084 27.0649Z"
			fill="white"
		/>
	</svg>